#N canvas 0 53 767 466 10;
#X declare -path include;
#X declare -stdpath extra/ggee -stdpath extra/zexy -stdlib extra/zexy
;
#X declare -stdpath extra/ggee;
#X declare -stdlib zexy;
#X declare -stdpath extra/ggee;
#X declare -stdpath extra/ggee;
#X declare -stdpath extra/ggee;
#X declare -stdpath extra/ggee;
#X declare -path wav -stdpath extra/moocow;
#X declare -stdpath extra/ggee;
#N canvas 213 173 391 212 INIT 0;
#X obj -153 10 declare -path include;
#X obj -151 44 loadbang;
#X obj -151 66 \$0;
#X msg -151 87 \; pd dsp 1 \; \$1.get.next 0 \; DEBUG 1;
#X connect 1 0 2 0;
#X connect 2 0 3 0;
#X restore 400 25 pd INIT;
#X obj 18 44 rsk_daily_playlist;
#X obj 18 133 rsk_get_streamurl_from_locid;
#X obj 18 161 rsk_stream_chooser;
#X obj 18 67 t a a;
#X msg 73 85 \$1 \$2 \$3;
#X obj 73 107 s \$0.time.next;
#X obj 18 17 r \$0.get.next;
#X msg 18 100 \$4;
#X obj 22 430 dac~;
#X obj 18 225 list prepend 0;
#X obj 99 182 r \$0.onair;
#X obj 99 203 == 0;
#X obj 562 44 r \$0.time.next;
#X obj 562 141 route 0 1;
#X obj 562 195 tgl 15 0 empty empty empty 17 7 0 10 -262144 -1 -1 1
1;
#X msg 562 66 symbol PLAY_NEXT_AT_\$1:\$2:\$3;
#X symbolatom 562 88 30 0 0 0 - - -;
#X obj 562 119 r \$0.state;
#N canvas 152 194 449 383 players 0;
#X obj 13 178 rsk_streamplayer;
#X obj 13 307 rsk_mixer;
#X obj 308 290 r \$0.onair;
#X obj 13 36 route 0 1;
#X obj 44 161 cnv 10 10 10 empty empty 0 0 0 0 40 -262144 -66577 0
;
#X msg 13 156 \$2;
#X msg 106 200 0 \$1;
#X obj 106 244 s \$0.state;
#X obj 13 10 inlet;
#X obj 106 222 list append;
#X obj 13 118 t a a;
#X msg 169 201 \$1;
#X obj 14 342 outlet~;
#X obj 65 343 outlet~;
#X obj 234 178 rsk_streamplayer;
#X obj 265 161 cnv 10 10 10 empty empty 1 0 0 0 40 -262144 -66577 0
;
#X msg 234 156 \$2;
#X obj 327 244 s \$0.state;
#X obj 327 222 list append;
#X obj 234 118 t a a;
#X msg 390 201 \$1;
#X msg 327 200 1 \$1;
#X obj 13 64 t b a;
#X obj 13 86 list append;
#X obj 234 64 t b a;
#X obj 234 86 list append;
#X obj 147 8 r \$0.retrigger;
#X obj 147 31 sel 0 1;
#X obj 113 155 s \$0.trial.counter;
#X connect 0 0 1 0;
#X connect 0 1 1 1;
#X connect 0 2 6 0;
#X connect 1 0 12 0;
#X connect 1 1 13 0;
#X connect 2 0 1 4;
#X connect 3 0 22 0;
#X connect 3 1 24 0;
#X connect 5 0 0 0;
#X connect 6 0 9 0;
#X connect 8 0 3 0;
#X connect 9 0 7 0;
#X connect 10 0 5 0;
#X connect 10 1 11 0;
#X connect 10 1 28 0;
#X connect 11 0 9 1;
#X connect 14 0 1 2;
#X connect 14 1 1 3;
#X connect 14 2 21 0;
#X connect 16 0 14 0;
#X connect 18 0 17 0;
#X connect 19 0 16 0;
#X connect 19 1 20 0;
#X connect 19 1 28 0;
#X connect 20 0 18 1;
#X connect 21 0 18 0;
#X connect 22 0 23 0;
#X connect 22 1 23 1;
#X connect 23 0 10 0;
#X connect 24 0 25 0;
#X connect 24 1 25 1;
#X connect 25 0 19 0;
#X connect 26 0 27 0;
#X connect 27 0 23 0;
#X connect 27 1 25 0;
#X restore 18 337 pd players;
#X obj 562 171 unpack f f;
#X floatatom 580 196 5 0 0 0 - - -;
#X obj 631 196 tgl 15 0 empty empty empty 17 7 0 10 -262144 -1 -1 1
1;
#X obj 631 172 unpack f f;
#X floatatom 649 197 5 0 0 0 - - -;
#X obj 563 258 hradio 15 1 0 2 empty empty empty 0 -8 0 10 -262144
-1 -1 0;
#X obj 563 236 r \$0.onair;
#X obj 267 14 r \$0.time.next;
#X obj 267 36 rsk_timebang;
#X obj 282 66 r \$0.state;
#X obj 321 89 r \$0.onair;
#X obj 321 112 == 0;
#X obj 282 134 route 0;
#X msg 282 158 \$1;
#X obj 267 184 f;
#X obj 267 207 t a a;
#X obj 294 233 sel 1;
#X obj 294 255 == 1;
#X obj 334 256 t a;
#X obj 294 321 s \$0.onair;
#X obj 267 342 sel 0 1;
#X msg 267 364 10;
#X msg 298 364 20;
#X obj 267 389 s \$0.get.next;
#N canvas 126 188 286 334 DEBUG 0;
#X obj 14 285 spigot;
#X obj 14 307 print -n;
#X obj 60 284 r DEBUG;
#X obj 19 7 r \$0.time.next;
#X obj 40 60 r \$0.state;
#X obj 67 119 r \$0.onair;
#X msg 67 142 RSK PLAYER \$1 GOES ON AIR;
#X msg 40 83 RSK PLAYER \$1 TRIES \$3 STATE \$2;
#X msg 19 31 RSK NEXT SCHEDULE AT \$1:\$2:\$3;
#X obj 19 204 s debug;
#X obj 14 263 r debug;
#X connect 0 0 1 0;
#X connect 2 0 0 1;
#X connect 3 0 8 0;
#X connect 4 0 7 0;
#X connect 5 0 6 0;
#X connect 6 0 9 0;
#X connect 7 0 9 0;
#X connect 8 0 9 0;
#X connect 10 0 0 0;
#X restore 400 47 pd DEBUG;
#X obj 59 431 rsk_icecast;
#N canvas 189 119 388 375 offair.try.next.on.failure 0;
#X obj 37 331 s \$0.get.next;
#X obj 68 101 r \$0.state;
#X obj 107 124 r \$0.onair;
#X obj 107 147 == 0;
#X obj 68 169 route 0;
#X msg 68 193 \$1;
#X obj 68 217 sel 1;
#X obj 37 286 delay 10000;
#X obj 37 71 r \$0.time.next;
#X obj 37 208 b;
#X msg 68 242 stop;
#X msg 37 308 11;
#X text 13 17 If stream doesn't start playing within 10 seconds \,
try the next URL.;
#X connect 1 0 4 0;
#X connect 2 0 3 0;
#X connect 3 0 4 1;
#X connect 4 0 5 0;
#X connect 5 0 6 0;
#X connect 6 0 10 0;
#X connect 7 0 11 0;
#X connect 8 0 9 0;
#X connect 9 0 7 0;
#X connect 10 0 7 0;
#X connect 11 0 0 0;
#X restore 479 396 pd offair.try.next.on.failure;
#N canvas 189 119 401 346 onair.try.again.on.failure 0;
#X obj 26 62 r \$0.state;
#X obj 65 85 r \$0.onair;
#X obj 26 130 route 0;
#X msg 26 154 \$1;
#X obj 26 235 delay 10000;
#X text 13 17 If the stream that is currently playing experiences a
drop-out for XX seconds \, try to reconnect.;
#X obj 26 178 sel 0 1;
#X msg 45 205 stop;
#X text 107 236 <- reconnect after 10 seconds drop-out.;
#X obj 85 152 r \$0.onair;
#X obj 85 174 b;
#X text 170 162 switches;
#X text 152 151 <- stop delay whenever onair instance;
#X obj 26 312 s \$0.retrigger;
#X obj 26 286 f;
#X obj 41 264 r \$0.onair;
#X connect 0 0 2 0;
#X connect 1 0 2 1;
#X connect 2 0 3 0;
#X connect 3 0 6 0;
#X connect 4 0 14 0;
#X connect 6 0 4 0;
#X connect 6 1 7 0;
#X connect 7 0 4 0;
#X connect 9 0 10 0;
#X connect 10 0 7 0;
#X connect 14 0 13 0;
#X connect 15 0 14 1;
#X restore 479 416 pd onair.try.again.on.failure;
#N canvas 279 44 483 300 status.update.onair 0;
#X obj 45 21 r \$0.onair;
#X obj 129 100 r \$0.state;
#X obj 129 122 route 0 1;
#X msg 129 144 \$2;
#X msg 154 144 \$2;
#X obj 45 135 sel 0 1;
#X obj 45 172 f;
#X obj 71 173 f;
#X obj 45 99 f;
#X msg 45 212 onair \$1;
#X obj 45 234 rsk_status;
#X obj 118 21 loadbang;
#X obj 118 43 metro 30000;
#X text 117 60 update onair status at least every 30s in order to enable
the server to be able to detect RSK outage.;
#X connect 0 0 8 0;
#X connect 1 0 2 0;
#X connect 2 0 3 0;
#X connect 2 1 4 0;
#X connect 3 0 6 1;
#X connect 4 0 7 1;
#X connect 5 0 6 0;
#X connect 5 1 7 0;
#X connect 6 0 9 0;
#X connect 7 0 9 0;
#X connect 8 0 5 0;
#X connect 9 0 10 0;
#X connect 11 0 12 0;
#X connect 12 0 8 0;
#X restore 479 355 pd status.update.onair;
#N canvas 335 71 373 348 status.update.next 0;
#X obj 24 23 r \$0.state;
#X obj 63 46 r \$0.onair;
#X obj 63 69 == 0;
#X obj 24 91 route 0;
#X obj 24 161 unpack;
#X obj 24 193 sel 0 1;
#X obj 56 221 f;
#X msg 24 220 0;
#X msg 24 271 next \$1;
#X obj 24 296 rsk_status;
#X obj 24 248 change -1;
#X obj 102 191 r \$0.onair;
#X obj 24 116 t b a;
#X obj 24 138 list;
#X connect 0 0 3 0;
#X connect 1 0 2 0;
#X connect 2 0 3 1;
#X connect 3 0 12 0;
#X connect 4 0 5 0;
#X connect 4 1 6 1;
#X connect 5 0 7 0;
#X connect 5 1 6 0;
#X connect 6 0 10 0;
#X connect 7 0 10 0;
#X connect 8 0 9 0;
#X connect 10 0 8 0;
#X connect 11 0 7 0;
#X connect 12 0 13 0;
#X connect 12 1 13 1;
#X connect 13 0 4 0;
#X restore 479 375 pd status.update.next;
#N canvas 284 184 134 104 counter.update.try 0;
#X obj 9 13 r \$0.trial.counter;
#X msg 9 35 try \$1;
#X obj 9 57 rsk_counter;
#X connect 0 0 1 0;
#X connect 1 0 2 0;
#X restore 479 335 pd counter.update.try;
#N canvas 335 98 226 244 counter.update.play 0;
#X obj 12 11 r \$0.update.play;
#X obj 111 75 r \$0.state;
#X obj 111 96 route 0 1;
#X obj 39 52 r \$0.onair;
#X obj 12 78 f;
#X obj 12 53 b;
#X obj 12 101 sel 0 1;
#X obj 12 128 list 0 0;
#X obj 73 129 list 0 0;
#X obj 12 163 route 1;
#X msg 12 187 play \$1;
#X obj 12 210 rsk_counter;
#X connect 0 0 5 0;
#X connect 1 0 2 0;
#X connect 2 0 7 1;
#X connect 2 1 8 1;
#X connect 3 0 4 1;
#X connect 4 0 6 0;
#X connect 5 0 4 0;
#X connect 6 0 7 0;
#X connect 6 1 8 0;
#X connect 7 0 9 0;
#X connect 8 0 9 0;
#X connect 9 0 10 0;
#X connect 10 0 11 0;
#X restore 479 315 pd counter.update.play;
#X obj 294 278 t a b;
#X obj 321 301 s \$0.update.play;
#X obj 93 364 rsk_announce;
#X obj 19 394 rsk_ducking;
#X obj 93 314 rsk_get_announce_data;
#X obj 331 165 bng 15 250 50 0 empty empty empty 17 7 0 10 -262144
-1 -1;
#X obj 18 183 t a a;
#X msg 93 266 \$1;
#X msg 93 340 play;
#X obj 162 389 s \$0.ann.done;
#N canvas 403 332 197 119 debug 0;
#X obj 17 16 inlet;
#X obj 17 38 list prepend RSK ANNOUNCE;
#X obj 17 59 list trim;
#X obj 17 81 s debug;
#X connect 0 0 1 0;
#X connect 1 0 2 0;
#X connect 2 0 3 0;
#X restore 179 339 pd debug;
#N canvas 407 419 145 197 trig.ann 0;
#X obj 18 22 inlet;
#X obj 19 157 outlet;
#X obj 19 66 f;
#X obj 19 113 delay 5000;
#X obj 19 88 t b a;
#X obj 19 135 f;
#X obj 57 14 r \$0.onair;
#X obj 57 40 b;
#X connect 0 0 2 1;
#X connect 2 0 4 0;
#X connect 3 0 5 0;
#X connect 4 0 3 0;
#X connect 4 1 5 1;
#X connect 5 0 1 0;
#X connect 6 0 7 0;
#X connect 7 0 2 0;
#X restore 93 290 pd trig.ann;
#X connect 1 0 4 0;
#X connect 2 0 3 0;
#X connect 2 1 3 1;
#X connect 3 0 58 0;
#X connect 4 0 8 0;
#X connect 4 1 5 0;
#X connect 5 0 6 0;
#X connect 7 0 1 0;
#X connect 8 0 2 0;
#X connect 10 0 19 0;
#X connect 11 0 12 0;
#X connect 12 0 10 1;
#X connect 13 0 16 0;
#X connect 14 0 20 0;
#X connect 14 1 23 0;
#X connect 16 0 17 0;
#X connect 18 0 14 0;
#X connect 19 0 55 0;
#X connect 19 1 55 1;
#X connect 20 0 15 0;
#X connect 20 1 21 0;
#X connect 23 0 22 0;
#X connect 23 1 24 0;
#X connect 26 0 25 0;
#X connect 27 0 28 0;
#X connect 28 0 34 0;
#X connect 29 0 32 0;
#X connect 30 0 31 0;
#X connect 31 0 32 1;
#X connect 32 0 33 0;
#X connect 33 0 34 1;
#X connect 34 0 35 0;
#X connect 35 0 40 0;
#X connect 35 1 36 0;
#X connect 36 0 37 0;
#X connect 37 0 38 0;
#X connect 37 0 52 0;
#X connect 38 0 37 1;
#X connect 40 0 41 0;
#X connect 40 1 42 0;
#X connect 41 0 43 0;
#X connect 42 0 43 0;
#X connect 52 0 39 0;
#X connect 52 1 53 0;
#X connect 54 0 55 2;
#X connect 54 1 55 3;
#X connect 54 2 61 0;
#X connect 55 0 9 0;
#X connect 55 0 45 0;
#X connect 55 1 9 1;
#X connect 55 1 45 1;
#X connect 56 0 60 0;
#X connect 56 1 54 0;
#X connect 56 1 62 0;
#X connect 57 0 34 0;
#X connect 58 0 10 0;
#X connect 58 1 59 0;
#X connect 59 0 63 0;
#X connect 60 0 54 0;
#X connect 63 0 56 0;
