#N canvas 0 44 768 465 10;
#X declare -path include;
#X declare -stdpath extra/ggee -stdpath extra/zexy -stdlib extra/zexy
;
#X declare -stdpath extra/ggee;
#X declare -stdlib zexy;
#N canvas 213 173 391 212 INIT 0;
#X obj -153 10 declare -path include;
#X obj -151 44 loadbang;
#X obj -151 66 \$0;
#X msg -151 87 \; pd dsp 1 \; \$1.get.next 0 \; DEBUG 1;
#X connect 1 0 2 0;
#X connect 2 0 3 0;
#X restore 400 25 pd INIT;
#X obj 18 44 rsk_daily_playlist;
#X obj 18 133 rsk_get_streamurl_from_locid;
#X obj 18 161 rsk_stream_chooser;
#X obj 18 67 t a a;
#X msg 73 85 \$1 \$2 \$3;
#X obj 73 107 s \$0.time.next;
#X obj 18 17 r \$0.get.next;
#X msg 18 100 \$4;
#X obj 17 337 dac~;
#X obj 18 263 list prepend 0;
#X obj 99 220 r \$0.onair;
#X obj 99 241 == 0;
#X obj 562 44 r \$0.time.next;
#X obj 562 141 route 0 1;
#X obj 562 195 tgl 15 0 empty empty empty 17 7 0 10 -262144 -1 -1 1
1;
#X msg 562 66 symbol PLAY_NEXT_AT_\$1:\$2:\$3;
#X symbolatom 562 88 30 0 0 0 - - -;
#X obj 562 119 r \$0.state;
#N canvas 152 194 449 383 players 0;
#X obj 13 178 rsk_streamplayer;
#X obj 13 307 rsk_mixer;
#X obj 308 290 r \$0.onair;
#X obj 13 36 route 0 1;
#X obj 44 161 cnv 10 10 10 empty empty 0 0 0 0 40 -262144 -66577 0
;
#X msg 13 156 \$2;
#X msg 106 200 0 \$1;
#X obj 106 244 s \$0.state;
#X obj 13 10 inlet;
#X obj 106 222 list append;
#X obj 13 118 t a a;
#X msg 169 201 \$1;
#X obj 14 342 outlet~;
#X obj 65 343 outlet~;
#X obj 234 178 rsk_streamplayer;
#X obj 265 161 cnv 10 10 10 empty empty 1 0 0 0 40 -262144 -66577 0
;
#X msg 234 156 \$2;
#X obj 327 244 s \$0.state;
#X obj 327 222 list append;
#X obj 234 118 t a a;
#X msg 390 201 \$1;
#X msg 327 200 1 \$1;
#X obj 13 64 t b a;
#X obj 13 86 list append;
#X obj 234 64 t b a;
#X obj 234 86 list append;
#X obj 147 8 r \$0.retrigger;
#X obj 147 31 sel 0 1;
#X connect 0 0 1 0;
#X connect 0 1 1 1;
#X connect 0 2 6 0;
#X connect 1 0 12 0;
#X connect 1 1 13 0;
#X connect 2 0 1 4;
#X connect 3 0 22 0;
#X connect 3 1 24 0;
#X connect 5 0 0 0;
#X connect 6 0 9 0;
#X connect 8 0 3 0;
#X connect 9 0 7 0;
#X connect 10 0 5 0;
#X connect 10 1 11 0;
#X connect 11 0 9 1;
#X connect 14 0 1 2;
#X connect 14 1 1 3;
#X connect 14 2 21 0;
#X connect 16 0 14 0;
#X connect 18 0 17 0;
#X connect 19 0 16 0;
#X connect 19 1 20 0;
#X connect 20 0 18 1;
#X connect 21 0 18 0;
#X connect 22 0 23 0;
#X connect 22 1 23 1;
#X connect 23 0 10 0;
#X connect 24 0 25 0;
#X connect 24 1 25 1;
#X connect 25 0 19 0;
#X connect 26 0 27 0;
#X connect 27 0 23 0;
#X connect 27 1 25 0;
#X restore 18 297 pd players;
#X obj 562 171 unpack f f;
#X floatatom 580 196 5 0 0 0 - - -;
#X obj 631 196 tgl 15 0 empty empty empty 17 7 0 10 -262144 -1 -1 1
1;
#X obj 631 172 unpack f f;
#X floatatom 649 197 5 0 0 0 - - -;
#X obj 563 258 hradio 15 1 0 2 empty empty empty 0 -8 0 10 -262144
-1 -1 0;
#X obj 563 236 r \$0.onair;
#X obj 267 25 r \$0.time.next;
#X obj 267 47 rsk_timebang;
#X obj 282 77 r \$0.state;
#X obj 321 100 r \$0.onair;
#X obj 321 123 == 0;
#X obj 282 145 route 0;
#X msg 282 169 \$1;
#X obj 267 195 f;
#X obj 267 218 t a a;
#X obj 294 244 sel 1;
#X obj 294 266 == 1;
#X obj 334 267 t a;
#X obj 294 291 s \$0.onair;
#X obj 267 317 sel 0 1;
#X msg 267 339 10;
#X msg 298 339 20;
#X obj 267 364 s \$0.get.next;
#N canvas 126 188 286 334 DEBUG 0;
#X obj 14 285 spigot;
#X obj 14 307 print -n;
#X obj 60 284 r DEBUG;
#X obj 19 7 r \$0.time.next;
#X obj 40 60 r \$0.state;
#X obj 67 119 r \$0.onair;
#X msg 67 142 RSK PLAYER \$1 GOES ON AIR;
#X msg 40 83 RSK PLAYER \$1 TRIES \$3 STATE \$2;
#X msg 19 31 RSK NEXT SCHEDULE AT \$1:\$2:\$3;
#X obj 19 204 s debug;
#X obj 14 263 r debug;
#X connect 0 0 1 0;
#X connect 2 0 0 1;
#X connect 3 0 8 0;
#X connect 4 0 7 0;
#X connect 5 0 6 0;
#X connect 6 0 9 0;
#X connect 7 0 9 0;
#X connect 8 0 9 0;
#X connect 10 0 0 0;
#X restore 400 47 pd DEBUG;
#X obj 54 338 rsk_icecast;
#N canvas 189 119 388 375 offair.try.next.on.failure 0;
#X obj 37 331 s \$0.get.next;
#X obj 68 101 r \$0.state;
#X obj 107 124 r \$0.onair;
#X obj 107 147 == 0;
#X obj 68 169 route 0;
#X msg 68 193 \$1;
#X obj 68 217 sel 1;
#X obj 37 286 delay 10000;
#X obj 37 71 r \$0.time.next;
#X obj 37 208 b;
#X msg 68 242 stop;
#X msg 37 308 11;
#X text 13 17 If stream doesn't start playing within 10 seconds \,
try the next URL.;
#X connect 1 0 4 0;
#X connect 2 0 3 0;
#X connect 3 0 4 1;
#X connect 4 0 5 0;
#X connect 5 0 6 0;
#X connect 6 0 10 0;
#X connect 7 0 11 0;
#X connect 8 0 9 0;
#X connect 9 0 7 0;
#X connect 10 0 7 0;
#X connect 11 0 0 0;
#X restore 267 410 pd offair.try.next.on.failure;
#N canvas 189 119 401 346 onair.try.again.on.failure 0;
#X obj 26 62 r \$0.state;
#X obj 65 85 r \$0.onair;
#X obj 26 130 route 0;
#X msg 26 154 \$1;
#X obj 26 235 delay 10000;
#X text 13 17 If the stream that is currently playing experiences a
drop-out for XX seconds \, try to reconnect.;
#X obj 26 178 sel 0 1;
#X msg 45 205 stop;
#X text 107 236 <- reconnect after 10 seconds drop-out.;
#X obj 85 152 r \$0.onair;
#X obj 85 174 b;
#X text 170 162 switches;
#X text 152 151 <- stop delay whenever onair instance;
#X obj 26 312 s \$0.retrigger;
#X obj 26 286 f;
#X obj 41 264 r \$0.onair;
#X connect 0 0 2 0;
#X connect 1 0 2 1;
#X connect 2 0 3 0;
#X connect 3 0 6 0;
#X connect 4 0 14 0;
#X connect 6 0 4 0;
#X connect 6 1 7 0;
#X connect 7 0 4 0;
#X connect 9 0 10 0;
#X connect 10 0 7 0;
#X connect 14 0 13 0;
#X connect 15 0 14 1;
#X restore 267 430 pd onair.try.again.on.failure;
#X connect 1 0 4 0;
#X connect 2 0 3 0;
#X connect 2 1 3 1;
#X connect 3 0 10 0;
#X connect 4 0 8 0;
#X connect 4 1 5 0;
#X connect 5 0 6 0;
#X connect 7 0 1 0;
#X connect 8 0 2 0;
#X connect 10 0 19 0;
#X connect 11 0 12 0;
#X connect 12 0 10 1;
#X connect 13 0 16 0;
#X connect 14 0 20 0;
#X connect 14 1 23 0;
#X connect 16 0 17 0;
#X connect 18 0 14 0;
#X connect 19 0 9 0;
#X connect 19 0 45 0;
#X connect 19 1 9 1;
#X connect 19 1 45 1;
#X connect 20 0 15 0;
#X connect 20 1 21 0;
#X connect 23 0 22 0;
#X connect 23 1 24 0;
#X connect 26 0 25 0;
#X connect 27 0 28 0;
#X connect 28 0 34 0;
#X connect 29 0 32 0;
#X connect 30 0 31 0;
#X connect 31 0 32 1;
#X connect 32 0 33 0;
#X connect 33 0 34 1;
#X connect 34 0 35 0;
#X connect 35 0 40 0;
#X connect 35 1 36 0;
#X connect 36 0 37 0;
#X connect 37 0 38 0;
#X connect 37 0 39 0;
#X connect 38 0 37 1;
#X connect 40 0 41 0;
#X connect 40 1 42 0;
#X connect 41 0 43 0;
#X connect 42 0 43 0;
