#N canvas 0 44 543 404 10;
#X declare -path include;
#X declare -stdpath extra/ggee -stdpath extra/zexy -stdlib extra/zexy
;
#X declare -stdpath extra/ggee;
#N canvas 213 173 391 212 INIT 0;
#X obj -153 10 declare -path include;
#X obj -151 44 loadbang;
#X obj -151 66 \$0;
#X msg -151 87 \; pd dsp 1 \; \$1.get.next 0;
#X connect 1 0 2 0;
#X connect 2 0 3 0;
#X restore 400 25 pd INIT;
#X obj 18 44 rsk_daily_playlist;
#X obj 18 133 rsk_get_streamurl_from_locid;
#X obj 18 161 rsk_stream_chooser;
#X obj 18 67 t a a;
#X msg 73 85 \$1 \$2 \$3;
#X obj 73 107 s \$0.time.next;
#X obj 18 17 r \$0.get.next;
#X msg 18 100 \$4;
#X obj 18 322 dac~;
#X obj 18 243 list prepend 0;
#X obj 99 194 r \$0.onair;
#X obj 99 215 == 0;
#X obj 340 81 r \$0.time.next;
#X obj 339 190 route 0 1;
#X obj 339 217 tgl 15 0 empty empty empty 17 7 0 10 -262144 -1 -1 1
1;
#X obj 364 217 tgl 15 0 empty empty empty 17 7 0 10 -262144 -1 -1 1
1;
#X msg 340 103 symbol PLAY_NEXT_AT_\$1:\$2:\$3;
#X symbolatom 340 125 30 0 0 0 - - -;
#X obj 408 272 s \$0.get.next;
#X msg 408 249 0;
#X obj 305 303 s \$0.onair;
#X obj 305 278 hradio 15 1 0 2 empty empty empty 0 -8 0 10 -262144
-1 -1 0;
#X obj 339 168 r \$0.state;
#N canvas 152 194 515 329 players 0;
#X obj 13 133 rsk_streamplayer;
#X obj 13 262 rsk_mixer;
#X obj 308 245 r \$0.onair;
#X obj 13 36 route 0 1;
#X obj 44 116 cnv 10 10 10 empty empty 0 0 0 0 40 -262144 -66577 0
;
#X msg 13 111 \$2;
#X msg 106 155 0 \$1;
#X obj 106 199 s \$0.state;
#X obj 13 10 inlet;
#X obj 106 177 list append;
#X obj 13 73 t a a;
#X msg 169 156 \$1;
#X obj 14 297 outlet~;
#X obj 65 298 outlet~;
#X obj 234 133 rsk_streamplayer;
#X obj 265 116 cnv 10 10 10 empty empty 1 0 0 0 40 -262144 -66577 0
;
#X msg 234 111 \$2;
#X obj 327 199 s \$0.state;
#X obj 327 177 list append;
#X obj 234 73 t a a;
#X msg 390 156 \$1;
#X msg 327 155 1 \$1;
#X connect 0 0 1 0;
#X connect 0 1 1 1;
#X connect 0 2 6 0;
#X connect 1 0 12 0;
#X connect 1 1 13 0;
#X connect 2 0 1 4;
#X connect 3 0 10 0;
#X connect 3 1 19 0;
#X connect 5 0 0 0;
#X connect 6 0 9 0;
#X connect 8 0 3 0;
#X connect 9 0 7 0;
#X connect 10 0 5 0;
#X connect 10 1 11 0;
#X connect 11 0 9 1;
#X connect 14 0 1 2;
#X connect 14 1 1 3;
#X connect 14 2 21 0;
#X connect 16 0 14 0;
#X connect 18 0 17 0;
#X connect 19 0 16 0;
#X connect 19 1 20 0;
#X connect 20 0 18 1;
#X connect 21 0 18 0;
#X restore 18 277 pd players;
#X connect 1 0 4 0;
#X connect 2 0 3 0;
#X connect 2 1 3 1;
#X connect 3 0 10 0;
#X connect 4 0 8 0;
#X connect 4 1 5 0;
#X connect 5 0 6 0;
#X connect 7 0 1 0;
#X connect 8 0 2 0;
#X connect 10 0 24 0;
#X connect 11 0 12 0;
#X connect 12 0 10 1;
#X connect 13 0 17 0;
#X connect 14 0 15 0;
#X connect 14 1 16 0;
#X connect 17 0 18 0;
#X connect 20 0 19 0;
#X connect 22 0 21 0;
#X connect 23 0 14 0;
#X connect 24 0 9 0;
#X connect 24 1 9 1;
