#N canvas 0 43 857 743 10;
#X declare -path include;
#X declare -stdlib zexy -stdpath zexy;
#N canvas 138 116 477 296 INIT 0;
#X obj 16 7 declare -path include;
#X obj 17 34 loadbang;
#X msg 17 56 \; pd dsp 1;
#X connect 1 0 2 0;
#X restore 9 9 pd INIT;
#X obj 304 198 print DATA;
#X obj 304 146 rsk_get_current_stream;
#X obj 692 354 rsk_play_counter;
#X obj 692 376 print STATUS;
#X floatatom 692 331 5 0 0 0 - - -, f 5;
#X obj 685 448 print STATUS;
#X floatatom 686 402 5 0 0 0 - - -, f 5;
#X obj 686 425 rsk_try_counter;
#X obj 65 9 declare -stdlib zexy -stdpath zexy;
#X obj 670 526 rsk_status_onair;
#X obj 670 549 print STATUS;
#X floatatom 670 506 5 0 0 0 - - -, f 5;
#X obj 668 619 print STATUS;
#X floatatom 668 575 5 0 0 0 - - -, f 5;
#X obj 668 595 rsk_status_next;
#X obj 666 689 print STATUS;
#X floatatom 666 645 5 0 0 0 - - -, f 5;
#X obj 666 665 rsk_status_online;
#X obj 304 169 spigot 1;
#X obj 304 121 loadbang;
#X obj 9 42 r \$0.next;
#N canvas 251 198 571 295 get_next_stream 0;
#X obj 26 38 rsk_get_next_stream;
#X obj 188 107 rsk_update_timetable;
#X obj 188 84 sel 0 1;
#X obj 26 85 spigot;
#X obj 156 62 t a a;
#X obj 188 129 sel 1 0;
#X obj 188 199 spigot;
#X obj 318 173 t a a;
#X obj 350 197 sel 0;
#X msg 350 219 RSK GET NEXT STREAM ERROR;
#X obj 350 241 s ERROR;
#X obj 26 7 inlet;
#X obj 26 252 outlet;
#X obj 188 151 rsk_get_next_stream;
#X connect 0 0 3 0;
#X connect 0 1 4 0;
#X connect 1 0 5 0;
#X connect 2 0 1 0;
#X connect 3 0 12 0;
#X connect 4 0 3 1;
#X connect 4 1 2 0;
#X connect 5 0 13 0;
#X connect 5 1 9 0;
#X connect 6 0 12 0;
#X connect 7 0 6 1;
#X connect 7 1 8 0;
#X connect 8 0 9 0;
#X connect 9 0 10 0;
#X connect 11 0 0 0;
#X connect 13 0 6 0;
#X connect 13 1 7 0;
#X restore 9 69 pd get_next_stream;
#X obj 360 674 r ERROR;
#X obj 360 696 print ERROR;
#X obj 640 48 text define \$0.upcoming;
#N canvas 0 50 346 285 store_upcoming 0;
#X obj 110 213 text set \$0.upcoming;
#X obj 155 169 loadbang;
#X msg 155 191 1e+08;
#X obj 110 187 list;
#X obj 8 12 inlet;
#X obj 8 110 text delete \$0.upcoming;
#X msg 8 82 -1;
#X obj 8 34 route BEGIN END;
#X obj 59 211 outlet;
#X obj 59 180 b;
#X connect 1 0 2 0;
#X connect 2 0 0 1;
#X connect 3 0 0 0;
#X connect 4 0 7 0;
#X connect 6 0 5 0;
#X connect 7 0 6 0;
#X connect 7 1 9 0;
#X connect 7 2 3 0;
#X connect 9 0 8 0;
#X restore 9 98 pd store_upcoming;
#X obj 9 127 t b b;
#X obj 41 156 s \$0.prepare.next;
#N canvas 302 263 448 328 schedule_upcoming 0;
#X obj 15 24 inlet;
#X obj 15 84 text search \$0.upcoming;
#X obj 15 55 symbol leadtime;
#X obj 15 139 text get \$0.upcoming;
#X obj 15 207 * 1000;
#X text 63 207 convert seconds to milliseconds;
#X obj 15 233 delay;
#X obj 15 283 outlet;
#X obj 15 106 sel -1;
#X msg 218 142 RSK SCHEDULE UPCOMING ERROR;
#X obj 218 165 s ERROR;
#X msg 15 162 \$2;
#X connect 0 0 2 0;
#X connect 1 0 8 0;
#X connect 2 0 1 0;
#X connect 3 0 11 0;
#X connect 4 0 6 0;
#X connect 6 0 7 0;
#X connect 8 0 9 0;
#X connect 8 1 3 0;
#X connect 9 0 10 0;
#X connect 11 0 4 0;
#X restore 9 186 pd schedule_upcoming;
#X obj 9 216 s \$0.switch;
#X obj 257 518 rsk_stream_player;
#X connect 2 0 19 0;
#X connect 2 1 19 1;
#X connect 3 0 4 0;
#X connect 5 0 3 0;
#X connect 7 0 8 0;
#X connect 8 0 6 0;
#X connect 10 0 11 0;
#X connect 12 0 10 0;
#X connect 14 0 15 0;
#X connect 15 0 13 0;
#X connect 17 0 18 0;
#X connect 18 0 16 0;
#X connect 19 0 1 0;
#X connect 20 0 2 0;
#X connect 21 0 22 0;
#X connect 22 0 26 0;
#X connect 23 0 24 0;
#X connect 26 0 27 0;
#X connect 27 0 29 0;
#X connect 27 1 28 0;
#X connect 29 0 30 0;
