#N canvas 151 55 758 598 10;
#X declare -path include;
#X obj -56 14 declare -path include;
#X obj -46 44 loadbang;
#X obj 150 221 f;
#X obj 187 221 + 1;
#X obj 150 65 r next;
#X obj 150 187 t b a;
#X obj 150 285 list prepend;
#X obj 150 527 s next;
#X obj 286 39 tgl 30 0 empty empty start/stop 33 10 0 20 -204786 -1
-1 0 1;
#X obj 286 74 t a a;
#X obj 286 109 s checking;
#X obj 150 479 rsk_test_stream 1;
#X obj 197 192 r start_pos;
#X obj -26 217 s start_pos;
#X obj 150 115 spigot 1;
#X obj 150 137 moses 6985;
#X floatatom -26 181 5 0 0 0 - - -;
#X obj 150 317 route 1 2 3 4 5 6 7;
#X obj 187 435 rsk_test_stream 3;
#X obj 168 457 rsk_test_stream 2;
#X obj 205 412 rsk_test_stream 4;
#X obj 224 390 rsk_test_stream 5;
#X obj 242 368 rsk_test_stream 6;
#X obj 261 347 rsk_test_stream 7;
#X obj -20 446 rsk_test_stream 0;
#X floatatom 21 320 5 0 0 0 - - -;
#X msg -46 66 \; pd dsp 1 \;;
#X obj -26 125 r start_pos;
#X msg -26 147 set \$1;
#X obj 150 243 t a a;
#X msg 316 142 clear \, add \$1 \, write /tmp/rsk_stream_checker_pos
;
#X obj 316 164 textfile;
#X obj 316 236 textfile;
#X msg 316 212 read /tmp/rsk_stream_checker_pos \, rewind \, bang;
#X obj 316 190 loadbang;
#X obj 316 278 s start_pos;
#X obj -13 384 f;
#X obj 17 384 + 1;
#X obj -27 346 bng 15 250 50 0 empty empty empty 17 7 0 10 -262144
-1 -1;
#X floatatom 25 421 5 0 0 0 - - -;
#X floatatom 247 260 5 0 0 0 - - -;
#X obj 21 271 r start_pos;
#X floatatom 266 503 5 0 0 0 - - -;
#X floatatom 284 480 5 0 0 0 - - -;
#X floatatom 303 457 5 0 0 0 - - -;
#X floatatom 321 437 5 0 0 0 - - -;
#X floatatom 340 416 5 0 0 0 - - -;
#X floatatom 358 391 5 0 0 0 - - -;
#X floatatom 375 370 5 0 0 0 - - -;
#X obj 414 537 s next;
#X floatatom 530 513 5 0 0 0 - - -;
#X floatatom 548 490 5 0 0 0 - - -;
#X floatatom 567 467 5 0 0 0 - - -;
#X floatatom 585 447 5 0 0 0 - - -;
#X floatatom 604 426 5 0 0 0 - - -;
#X floatatom 622 401 5 0 0 0 - - -;
#X floatatom 639 380 5 0 0 0 - - -;
#X obj 414 327 route 8 9 10 11 12 13 14;
#X obj 414 489 rsk_test_stream 8;
#X obj 432 467 rsk_test_stream 9;
#X obj 451 445 rsk_test_stream 10;
#X obj 469 422 rsk_test_stream 11;
#X obj 488 400 rsk_test_stream 12;
#X obj 506 378 rsk_test_stream 13;
#X obj 525 357 rsk_test_stream 14;
#X obj 316 258 - 20;
#X connect 1 0 26 0;
#X connect 2 0 3 0;
#X connect 2 0 29 0;
#X connect 3 0 2 1;
#X connect 4 0 14 0;
#X connect 5 0 2 0;
#X connect 5 1 6 1;
#X connect 6 0 17 0;
#X connect 6 0 57 0;
#X connect 8 0 9 0;
#X connect 9 0 10 0;
#X connect 9 1 14 1;
#X connect 11 0 7 0;
#X connect 11 1 42 0;
#X connect 12 0 2 1;
#X connect 14 0 15 0;
#X connect 15 0 5 0;
#X connect 16 0 13 0;
#X connect 17 0 11 0;
#X connect 17 1 19 0;
#X connect 17 2 18 0;
#X connect 17 3 20 0;
#X connect 17 4 21 0;
#X connect 17 5 22 0;
#X connect 17 6 23 0;
#X connect 18 0 7 0;
#X connect 18 1 44 0;
#X connect 19 0 7 0;
#X connect 19 1 43 0;
#X connect 20 0 7 0;
#X connect 20 1 45 0;
#X connect 21 0 7 0;
#X connect 21 1 46 0;
#X connect 22 0 7 0;
#X connect 22 1 47 0;
#X connect 23 0 7 0;
#X connect 23 1 48 0;
#X connect 25 0 36 1;
#X connect 27 0 28 0;
#X connect 28 0 16 0;
#X connect 29 0 6 0;
#X connect 29 1 30 0;
#X connect 29 1 40 0;
#X connect 30 0 31 0;
#X connect 32 0 65 0;
#X connect 33 0 32 0;
#X connect 34 0 33 0;
#X connect 36 0 37 0;
#X connect 36 0 24 0;
#X connect 36 0 39 0;
#X connect 37 0 36 1;
#X connect 38 0 36 0;
#X connect 41 0 25 0;
#X connect 57 0 58 0;
#X connect 57 1 59 0;
#X connect 57 2 60 0;
#X connect 57 3 61 0;
#X connect 57 4 62 0;
#X connect 57 5 63 0;
#X connect 57 6 64 0;
#X connect 58 0 49 0;
#X connect 58 1 50 0;
#X connect 59 0 49 0;
#X connect 59 1 51 0;
#X connect 60 0 49 0;
#X connect 60 1 52 0;
#X connect 61 0 49 0;
#X connect 61 1 53 0;
#X connect 62 0 49 0;
#X connect 62 1 54 0;
#X connect 63 0 49 0;
#X connect 63 1 55 0;
#X connect 64 0 49 0;
#X connect 64 1 56 0;
#X connect 65 0 35 0;
