#N canvas 217 73 695 408 10;
#X declare -stdpath extra/ggee;
#X declare -path include;
#X declare -stdpath extra/ggee -stdpath extra/zexy -stdlib extra/zexy
;
#X obj 15 38 rsk_get_streamurl_from_locid;
#X obj 180 62 bng 15 250 50 0 empty empty empty 17 7 0 10 -262144 -1
-1;
#X obj 15 68 print STREAMS;
#X obj 297 10 declare -path include;
#X obj 22 276 rsk_streamplayer;
#X msg 102 61 set \$2;
#X msg 102 86 mms://bcr.media.hinet.net/RA000032;
#X obj 22 329 dac~;
#X obj 129 308 print;
#X msg 397 317 http://www.netpd.org:8010/netpd.mp3;
#X msg 305 254 mms://a688.l11289730687.c112897.a.lm.akamaistream.net/D/688/112897/v0001/reflector:30687
;
#X msg 403 337 http://radios.xalimasn.com:9020;
#X msg 389 296 http://85.214.153.149:8100;
#X obj 360 361 s \$0.play;
#X obj 22 251 r \$0.play;
#X obj 102 121 s \$0.play;
#X msg 390 228 http://66.197.173.15:8020/lofi.mp3;
#X msg 354 201 http://hpr-ice.streamguys.org/khpr2;
#X msg 15 12 _2506999;
#X msg 89 11 _1668341;
#X obj 364 97 rsk_daily_playlist;
#X connect 0 0 2 0;
#X connect 0 0 5 0;
#X connect 0 1 1 0;
#X connect 4 0 7 0;
#X connect 4 1 7 1;
#X connect 4 2 8 0;
#X connect 5 0 6 0;
#X connect 6 0 15 0;
#X connect 9 0 13 0;
#X connect 10 0 13 0;
#X connect 11 0 13 0;
#X connect 12 0 13 0;
#X connect 14 0 4 0;
#X connect 16 0 13 0;
#X connect 17 0 13 0;
#X connect 18 0 0 0;
#X connect 19 0 0 0;
