#N canvas 172 44 522 410 10;
#X declare -stdpath extra/ggee;
#X obj 11 235 shell;
#X obj 170 16 declare -stdpath extra/ggee;
#X obj 38 262 route 0;
#X obj 38 362 outlet;
#X obj 115 360 outlet;
#X obj 11 12 inlet;
#X obj 11 80 spigot 1;
#X obj 11 102 t a b;
#X msg 79 93 0;
#X obj 38 286 t b b;
#X msg 123 95 1;
#X text 123 246 returns stream_id and stream_url for given location_id
;
#X obj 11 34 list;
#X msg 11 124 list \$1 $user:$pass;
#X obj 11 310 route done failed;
#X obj 338 266 b;
#X obj 338 288 symbol;
#X obj 338 332 s error;
#X obj 11 56 t a a;
#X msg 338 310 RSK FAILED GET STREAMURL \$1;
#X obj 11 146 list append \$0;
#X msg 11 170 . include/pdaccess && wget -O /tmp/rsk_get_streamurl_from_locid_\$3.cache
--quiet http://\$2@www.radiosolarkompass.org/pd/streams_of_location.php?id=\$1
&& echo done || echo failed;
#N canvas 153 493 450 170 flush.cache 0;
#X obj 67 36 \$0;
#X obj 9 94 textfile;
#X obj 9 9 t b b;
#X obj 9 43 until;
#X obj 9 116 outlet;
#X obj 9 -13 inlet;
#X msg 67 60 read /tmp/rsk_get_streamurl_from_locid_\$1.cache \, rewind
;
#X connect 0 0 6 0;
#X connect 1 0 4 0;
#X connect 1 1 3 1;
#X connect 2 0 3 0;
#X connect 2 1 0 0;
#X connect 3 0 1 0;
#X connect 5 0 2 0;
#X connect 6 0 1 0;
#X restore 115 332 pd flush.cache;
#X obj 240 314 b;
#X obj 240 336 symbol;
#X msg 240 358 RSK GET STREAMURL \$1;
#X obj 240 380 s debug;
#X connect 0 0 14 0;
#X connect 0 1 2 0;
#X connect 2 0 9 0;
#X connect 5 0 12 0;
#X connect 6 0 7 0;
#X connect 7 0 13 0;
#X connect 7 1 8 0;
#X connect 8 0 6 1;
#X connect 9 0 3 0;
#X connect 9 1 10 0;
#X connect 9 1 22 0;
#X connect 10 0 6 1;
#X connect 12 0 18 0;
#X connect 13 0 20 0;
#X connect 14 0 23 0;
#X connect 14 1 15 0;
#X connect 15 0 16 0;
#X connect 16 0 19 0;
#X connect 18 0 6 0;
#X connect 18 1 16 1;
#X connect 18 1 24 1;
#X connect 19 0 17 0;
#X connect 20 0 21 0;
#X connect 21 0 0 0;
#X connect 22 0 4 0;
#X connect 23 0 24 0;
#X connect 24 0 25 0;
#X connect 25 0 26 0;
