#N canvas 677 1397 540 301 10;
#X declare -stdpath extra/ggee;
#X obj 11 148 shell;
#X obj 170 16 declare -stdpath extra/ggee;
#X msg 11 99 wget -O - --quiet http://www.radiosolarkompass.org/pd/streams_of_location.php?id=\$1
;
#X obj 38 172 route 0;
#X obj 60 244 outlet;
#X obj 11 243 outlet;
#X obj 11 12 inlet;
#X obj 11 55 spigot 1;
#X obj 11 77 t a b;
#X obj 11 34 route float;
#X msg 79 68 0;
#X obj 38 195 t b b;
#X msg 123 70 1;
#X text 124 185 returns stream_id and stream_url for given location_id
;
#X connect 0 0 5 0;
#X connect 0 1 3 0;
#X connect 2 0 0 0;
#X connect 3 0 11 0;
#X connect 6 0 9 0;
#X connect 7 0 8 0;
#X connect 8 0 2 0;
#X connect 8 1 10 0;
#X connect 9 0 7 0;
#X connect 10 0 7 1;
#X connect 11 0 4 0;
#X connect 11 1 12 0;
#X connect 12 0 7 1;
