#N canvas 30 96 666 275 10;
#N canvas 321 373 254 157 \$0.dynamic 0;
#X restore 273 216 pd \$0.dynamic;
#X obj 273 103 \$0;
#X obj 273 195 s pd-\$0.dynamic;
#X obj 314 101 s pd-\$0.dynamic;
#X obj 273 53 t b b;
#X msg 314 74 clear;
#X obj 32 22 inlet;
#X obj 32 193 outlet~;
#X obj 85 213 outlet~;
#X obj 139 233 outlet;
#X obj 32 116 s \$0.i.0;
#X obj 139 194 r \$0.o.2;
#X obj 32 44 t a a;
#X obj 59 68 route open;
#X obj 59 90 b;
#X msg 273 125 obj 16 50 readanysf~ \, obj 16 26 r \$1.i.0 \, obj 16
99 throw~ \$1.o.0 \, obj 100 99 throw~ \$1.o.1 \, obj 184 99 s \$1.o.2
\, connect 0 0 2 0 \, connect 0 1 3 0 \, connect 0 2 4 0 \, connect
1 0 0 0;
#X obj 32 154 catch~ \$0.o.0;
#X obj 85 174 catch~ \$0.o.1;
#X obj 273 19 bng 15 250 50 0 empty empty empty 17 7 0 10 -262144 -1
-1;
#X connect 1 0 15 0;
#X connect 4 0 1 0;
#X connect 4 1 5 0;
#X connect 5 0 3 0;
#X connect 6 0 12 0;
#X connect 11 0 9 0;
#X connect 12 0 10 0;
#X connect 12 1 13 0;
#X connect 13 0 14 0;
#X connect 14 0 4 0;
#X connect 15 0 2 0;
#X connect 16 0 7 0;
#X connect 17 0 8 0;
#X connect 18 0 4 0;
