#N canvas 122 66 481 428 10;
#X declare -stdpath extra/ggee;
#X obj 308 8 declare -stdpath extra/ggee;
#X obj 21 63 list;
#X obj 21 13 inlet;
#X obj 21 205 shell;
#X obj 21 228 route done failed;
#X obj 21 39 t a a;
#X obj 21 274 list trim;
#X obj 177 282 list append;
#X obj 177 304 list prepend RSK;
#X obj 177 326 list trim;
#X obj 177 348 print -n;
#X obj 25 385 s debug;
#X msg 177 257 FAILED STATUS;
#X msg 21 89 list $user:$pass \$1 \$2 \$3;
#X msg 21 113 . include/pdaccess && wget -O - --quiet --post-data "\$2=\$3&t=\$4"
http://\$1@www.radiosolarkompass.org/pd/status.php && echo done ||
echo failed;
#X obj 166 217 list;
#X obj 21 307 route online;
#X msg 86 12 next 0 12000;
#X obj 21 252 list append;
#X obj 25 340 list prepend RSK STATUS;
#X obj 25 362 list trim;
#X connect 1 0 13 0;
#X connect 2 0 5 0;
#X connect 3 0 4 0;
#X connect 4 0 18 0;
#X connect 4 1 12 0;
#X connect 5 0 1 0;
#X connect 5 1 15 0;
#X connect 6 0 16 0;
#X connect 7 0 8 0;
#X connect 8 0 9 0;
#X connect 9 0 10 0;
#X connect 12 0 7 0;
#X connect 13 0 14 0;
#X connect 14 0 3 0;
#X connect 15 0 7 1;
#X connect 15 0 18 1;
#X connect 16 1 19 0;
#X connect 17 0 5 0;
#X connect 18 0 6 0;
#X connect 19 0 20 0;
#X connect 20 0 11 0;
