#N canvas 140 66 495 382 10;
#X declare -stdpath extra/ggee;
#X obj 308 8 declare -stdpath extra/ggee;
#X obj 21 63 list;
#X msg 21 89 list $user:$pass \$1 \$2;
#X obj 21 13 inlet;
#X obj 21 205 shell;
#X obj 21 228 route done failed;
#X obj 21 39 t a a;
#X msg 21 251 COUNTER;
#X msg 129 250 FAILED COUNTER;
#X obj 150 177 route play try;
#X msg 150 202 PLAY \$1;
#X msg 204 203 TRY \$1;
#X obj 21 274 list append;
#X obj 21 296 list prepend RSK;
#X obj 21 318 list trim;
#X msg 21 113 . include/pdaccess && wget -O /dev/null --quiet --post-data
"\$2=\$3" http://\$1@www.radiosolarkompass.org/pd/counter.php && echo
done || echo failed;
#X obj 129 275 list append;
#X obj 129 297 list prepend RSK;
#X obj 129 319 list trim;
#X obj 129 341 print -n;
#X obj 21 340 s debug;
#X connect 1 0 2 0;
#X connect 2 0 15 0;
#X connect 3 0 6 0;
#X connect 4 0 5 0;
#X connect 5 0 7 0;
#X connect 5 1 8 0;
#X connect 6 0 1 0;
#X connect 6 1 9 0;
#X connect 7 0 12 0;
#X connect 8 0 16 0;
#X connect 9 0 10 0;
#X connect 9 1 11 0;
#X connect 10 0 12 1;
#X connect 10 0 16 1;
#X connect 11 0 12 1;
#X connect 11 0 16 1;
#X connect 12 0 13 0;
#X connect 13 0 14 0;
#X connect 14 0 20 0;
#X connect 15 0 4 0;
#X connect 16 0 17 0;
#X connect 17 0 18 0;
#X connect 18 0 19 0;
