#N canvas 343 44 544 365 10;
#X obj 14 237 mp3cast~;
#X obj 14 23 inlet~;
#X obj 60 23 inlet~;
#X msg 198 91 mountpoint rsk.mp3;
#X msg 183 113 mpeg 44100 128 1 0;
#X msg 168 134 name RadioSolarKompass;
#X msg 153 156 icecast2;
#X msg 138 177 passwd deleuze;
#X obj 123 68 t b b b b b b;
#X msg 123 200 connect 195.176.254.176 8010;
#X obj 150 226 t b b b;
#X msg 189 250 genre experimental;
#X msg 169 269 description Travel around the world following the sunrise
;
#X obj 123 43 t b b;
#X obj 349 106 sel 1 0;
#X msg 368 191 disconnect;
#X obj 349 8 loadbang;
#X obj 349 83 tgl 15 0 empty empty empty 17 7 0 10 -262144 -1 -1 1
1;
#X msg 349 63 1;
#X msg 14 314 RSK ICECAST CONNECTION STATE \$1;
#X obj 14 336 s debug;
#X msg 150 290 url http://www.radiosolarkompass.org;
#X obj 349 34 delay 10;
#X connect 0 0 19 0;
#X connect 1 0 0 0;
#X connect 2 0 0 1;
#X connect 3 0 0 0;
#X connect 4 0 0 0;
#X connect 5 0 0 0;
#X connect 6 0 0 0;
#X connect 7 0 0 0;
#X connect 8 0 9 0;
#X connect 8 1 7 0;
#X connect 8 2 6 0;
#X connect 8 3 5 0;
#X connect 8 4 4 0;
#X connect 8 5 3 0;
#X connect 9 0 0 0;
#X connect 10 0 21 0;
#X connect 10 1 12 0;
#X connect 10 2 11 0;
#X connect 11 0 0 0;
#X connect 12 0 0 0;
#X connect 13 0 8 0;
#X connect 13 1 10 0;
#X connect 14 0 13 0;
#X connect 14 1 15 0;
#X connect 15 0 0 0;
#X connect 16 0 22 0;
#X connect 17 0 14 0;
#X connect 18 0 17 0;
#X connect 19 0 20 0;
#X connect 21 0 0 0;
#X connect 22 0 18 0;
