#N canvas 453 44 342 441 10;
#X obj 22 17 inlet~;
#X obj 66 17 inlet~;
#X obj 178 50 env~;
#X obj 21 377 *~;
#X obj 64 377 *~;
#X obj 21 421 outlet~;
#X obj 65 401 outlet~;
#X obj 109 18 inlet~;
#X obj 153 18 inlet~;
#X obj 223 50 env~;
#X obj 178 111 list prepend;
#X obj 178 133 route 1 0;
#X obj 223 78 > 85;
#X obj 178 161 - 70;
#X obj 178 183 max 0;
#X msg 250 218 1;
#X msg 178 204 100 \$1;
#X obj 178 226 -;
#X obj 178 248 dbtorms;
#N canvas 990 100 174 279 dir 0;
#X obj 33 48 t a a b;
#X obj 56 78 f;
#X obj 33 99 -;
#X obj 33 18 inlet;
#X obj 33 192 outlet;
#X obj 33 148 < 0;
#X connect 0 0 2 0;
#X connect 0 1 1 1;
#X connect 0 2 1 0;
#X connect 1 0 2 1;
#X connect 2 0 5 0;
#X connect 3 0 0 0;
#X connect 5 0 4 0;
#X restore 205 293 pd dir;
#X obj 178 271 t a a;
#X obj 178 325 list prepend;
#X obj 178 347 route 1 0;
#X msg 232 372 \$1 3000;
#X msg 178 370 \$1 100;
#X obj 178 407 line~;
#X connect 0 0 2 0;
#X connect 0 0 3 0;
#X connect 1 0 2 0;
#X connect 1 0 4 0;
#X connect 2 0 10 0;
#X connect 3 0 5 0;
#X connect 4 0 6 0;
#X connect 7 0 5 0;
#X connect 7 0 9 0;
#X connect 8 0 6 0;
#X connect 8 0 9 0;
#X connect 9 0 12 0;
#X connect 10 0 11 0;
#X connect 11 0 13 0;
#X connect 11 1 15 0;
#X connect 12 0 10 1;
#X connect 13 0 14 0;
#X connect 14 0 16 0;
#X connect 15 0 20 0;
#X connect 16 0 17 0;
#X connect 17 0 18 0;
#X connect 18 0 20 0;
#X connect 19 0 21 1;
#X connect 20 0 21 0;
#X connect 20 1 19 0;
#X connect 21 0 22 0;
#X connect 22 0 24 0;
#X connect 22 1 23 0;
#X connect 23 0 25 0;
#X connect 24 0 25 0;
#X connect 25 0 4 1;
#X connect 25 0 3 1;
