#N canvas 205 63 496 436 10;
#X declare -stdpath extra/ggee;
#X obj 11 235 shell;
#X obj 170 16 declare -stdpath extra/ggee;
#X obj 38 262 route 0;
#X obj 38 396 outlet;
#X obj 99 389 outlet;
#X obj 11 12 inlet;
#X obj 11 80 spigot 1;
#X obj 11 102 t a b;
#X msg 79 93 0;
#X obj 38 285 t b b;
#X msg 123 95 1;
#X text 110 238 returns stream_id and stream_url for given location_id
;
#X obj 11 34 list;
#X msg 11 124 list \$1 $user:$pass;
#X obj 11 310 route done failed;
#X obj 199 262 b;
#X obj 199 328 s error;
#X obj 11 56 t a a;
#X obj 199 284 f;
#X msg 199 306 RSK FAILED GET ANNOUNCE \$1;
#X obj 369 262 b;
#X obj 369 284 f;
#X msg 369 306 RSK GET ANNOUNCE \$1;
#X obj 369 328 s debug;
#X obj 11 146 list append \$0;
#X msg 11 170 . include/pdaccess && wget -O /tmp/rsk_get_announce_data_\$3.cache
--quiet http://\$2@www.radiosolarkompass.org/pd/announce_data.php?radio=\$1
&& echo done || echo failed;
#N canvas 153 493 397 172 flush.cache 0;
#X obj 67 36 \$0;
#X obj 9 94 textfile;
#X msg 67 60 read /tmp/rsk_get_announce_data_\$1.cache \, rewind;
#X obj 9 9 t b b;
#X obj 9 43 until;
#X obj 9 116 outlet;
#X obj 9 -13 inlet;
#X connect 0 0 2 0;
#X connect 1 0 5 0;
#X connect 1 1 4 1;
#X connect 2 0 1 0;
#X connect 3 0 4 0;
#X connect 3 1 0 0;
#X connect 4 0 1 0;
#X connect 6 0 3 0;
#X restore 99 346 pd flush.cache;
#X connect 0 0 14 0;
#X connect 0 1 2 0;
#X connect 2 0 9 0;
#X connect 5 0 12 0;
#X connect 6 0 7 0;
#X connect 7 0 13 0;
#X connect 7 1 8 0;
#X connect 8 0 6 1;
#X connect 9 0 3 0;
#X connect 9 1 10 0;
#X connect 9 1 26 0;
#X connect 10 0 6 1;
#X connect 12 0 17 0;
#X connect 13 0 24 0;
#X connect 14 0 20 0;
#X connect 14 1 15 0;
#X connect 15 0 18 0;
#X connect 17 0 6 0;
#X connect 17 1 18 1;
#X connect 17 1 21 1;
#X connect 18 0 19 0;
#X connect 19 0 16 0;
#X connect 20 0 21 0;
#X connect 21 0 22 0;
#X connect 22 0 23 0;
#X connect 24 0 25 0;
#X connect 25 0 0 0;
#X connect 26 0 4 0;
