#N canvas 268 107 555 338 10;
#X declare -path wav -stdpath extra/moocow;
#N canvas 545 71 419 353 intro 0;
#X obj 147 128 soundfiler;
#X obj 147 19 loadbang;
#X obj 15 10 table \$0.intro.l;
#X obj 15 29 table \$0.intro.r;
#X obj 147 84 list prepend read -resize;
#X obj 147 106 list trim;
#X obj 147 41 \$0;
#X obj 36 213 tabplay~ \$0.intro.l;
#X obj 62 243 tabplay~ \$0.intro.r;
#X obj 197 280 outlet;
#X obj 36 175 b;
#X obj 36 148 inlet;
#X msg 147 62 wav/intro.wav \$1.intro.l \$1.intro.r;
#X obj 36 301 outlet~;
#X obj 62 272 outlet~;
#X connect 1 0 6 0;
#X connect 4 0 5 0;
#X connect 5 0 0 0;
#X connect 6 0 12 0;
#X connect 7 0 13 0;
#X connect 8 0 14 0;
#X connect 8 1 9 0;
#X connect 10 0 7 0;
#X connect 10 0 8 0;
#X connect 11 0 10 0;
#X connect 12 0 4 0;
#X restore 63 125 pd intro;
#X obj 419 223 catch~ \$0.out.l;
#X obj 444 245 catch~ \$0.out.r;
#X obj 301 7 declare -path wav -stdpath extra/moocow;
#X obj 244 240 flite;
#X obj 439 29 table \$0.sunrise;
#X obj 463 91 table \$0.now;
#X obj 457 50 table \$0.city;
#X obj 439 71 table \$0.country;
#X obj 452 112 table \$0.radio;
#N canvas 424 44 413 350 play_text 0;
#X obj 30 76 tabplay~ \$0.sunrise;
#X obj 141 97 del 100;
#X obj 162 140 del 100;
#X obj 240 226 del 100;
#X obj 69 119 tabplay~ \$0.city;
#X obj 90 162 tabplay~ \$0.country;
#X obj 153 204 tabplay~ \$0.now;
#X obj 193 248 tabplay~ \$0.radio;
#X obj 292 293 outlet;
#X obj 30 24 inlet;
#X obj 201 183 del 300;
#X obj 30 263 *~ 1.5;
#X obj 42 289 outlet~;
#X obj 30 312 outlet~;
#X connect 0 0 11 0;
#X connect 0 1 1 0;
#X connect 1 0 4 0;
#X connect 2 0 5 0;
#X connect 3 0 7 0;
#X connect 4 0 11 0;
#X connect 4 1 2 0;
#X connect 5 0 11 0;
#X connect 5 1 10 0;
#X connect 6 0 11 0;
#X connect 6 1 3 0;
#X connect 7 0 11 0;
#X connect 7 1 8 0;
#X connect 9 0 0 0;
#X connect 10 0 6 0;
#X connect 11 0 12 0;
#X connect 11 0 13 0;
#X restore 141 128 pd play_text;
#X obj 8 243 \$0;
#X obj 8 302 s \$0.render;
#X obj 8 218 loadbang;
#X obj 244 216 r \$0.render;
#X obj 141 45 t b a;
#N canvas 964 128 237 269 renderer 0;
#X obj 9 179 s \$0.render;
#X obj 9 7 inlet;
#X obj 103 120 list prepend \$0;
#X msg 103 142 set \$1.\$2;
#X obj 9 141 list;
#X obj 9 29 list;
#X obj 9 51 t a a;
#X msg 103 99 \$1;
#X obj 9 84 list split 1;
#X connect 1 0 5 0;
#X connect 2 0 3 0;
#X connect 3 0 0 0;
#X connect 4 0 0 0;
#X connect 5 0 6 0;
#X connect 6 0 8 0;
#X connect 6 1 7 0;
#X connect 7 0 2 0;
#X connect 8 1 4 0;
#X restore 203 88 pd renderer;
#X msg 8 265 set \$1.sunrise \, list sunrise inn \, set \$1.now \,
list now playing;
#X obj 17 10 inlet;
#X obj 17 32 t b a;
#X obj 17 54 del 10;
#X obj 419 305 outlet~;
#X obj 443 284 outlet~;
#X obj 103 170 rsk_ducking;
#X obj 498 200 outlet;
#X obj 103 213 throw~ \$0.out.l;
#X obj 165 193 throw~ \$0.out.r;
#X obj 141 86 del 400;
#X connect 0 0 23 0;
#X connect 0 1 23 1;
#X connect 1 0 21 0;
#X connect 2 0 22 0;
#X connect 10 0 23 2;
#X connect 10 1 23 3;
#X connect 10 2 24 0;
#X connect 11 0 17 0;
#X connect 13 0 11 0;
#X connect 14 0 4 0;
#X connect 15 0 27 0;
#X connect 15 1 16 0;
#X connect 17 0 12 0;
#X connect 18 0 19 0;
#X connect 19 0 20 0;
#X connect 19 1 15 0;
#X connect 20 0 0 0;
#X connect 23 0 25 0;
#X connect 23 1 26 0;
#X connect 27 0 10 0;
