#N canvas 206 180 232 334 10;
#X obj 105 203 list prepend;
#X obj 191 204 t a;
#X obj 42 230 list append;
#X obj 105 48 t a b;
#X obj 105 25 inlet;
#X obj 132 70 f;
#X obj 132 90 + 1;
#X obj 129 124 f;
#X obj 129 172 random;
#X obj 129 146 t b a;
#X obj 129 236 * 2;
#X obj 42 259 list split;
#X obj 70 284 list split 2;
#X obj 9 14 inlet;
#X obj 9 36 t b b b;
#X obj 73 171 t b b;
#X obj 70 306 outlet;
#X connect 0 0 1 0;
#X connect 0 0 2 1;
#X connect 1 0 0 1;
#X connect 2 0 11 0;
#X connect 3 0 0 0;
#X connect 3 1 5 0;
#X connect 4 0 3 0;
#X connect 5 0 6 0;
#X connect 6 0 7 1;
#X connect 6 0 5 1;
#X connect 7 0 9 0;
#X connect 8 0 10 0;
#X connect 9 0 8 0;
#X connect 9 1 8 1;
#X connect 10 0 11 1;
#X connect 11 1 12 0;
#X connect 12 0 16 0;
#X connect 13 0 14 0;
#X connect 14 0 15 0;
#X connect 14 1 2 0;
#X connect 14 2 7 0;
#X connect 15 0 2 1;
#X connect 15 1 0 1;
