#N canvas 134 48 495 382 10;
#X declare -stdpath extra/ggee;
#X obj 308 8 declare -stdpath extra/ggee;
#X obj 21 63 list;
#X obj 21 13 inlet;
#X obj 21 205 shell;
#X obj 21 228 route done failed;
#X obj 21 39 t a a;
#X obj 21 274 list append;
#X obj 21 296 list prepend RSK;
#X obj 21 318 list trim;
#X obj 129 275 list append;
#X obj 129 297 list prepend RSK;
#X obj 129 319 list trim;
#X obj 129 341 print -n;
#X obj 21 340 s debug;
#X obj 150 198 list;
#X obj 233 199 list;
#X obj 150 177 route onair next;
#X msg 21 251 STATUS;
#X msg 129 250 FAILED STATUS;
#X msg 21 89 list $user:$pass \$1 \$2 \$3;
#X msg 21 113 . include/pdaccess && wget -O - --quiet --post-data "\$2=\$3&t=\$4"
http://\$1@www.radiosolarkompass.org/pd/status.php && echo done ||
echo failed;
#X msg 150 219 ONAIR \$1 \$2;
#X msg 233 220 NEXT \$1 \$2;
#X connect 1 0 19 0;
#X connect 2 0 5 0;
#X connect 3 0 4 0;
#X connect 4 0 17 0;
#X connect 4 1 18 0;
#X connect 5 0 1 0;
#X connect 5 1 16 0;
#X connect 6 0 7 0;
#X connect 7 0 8 0;
#X connect 8 0 13 0;
#X connect 9 0 10 0;
#X connect 10 0 11 0;
#X connect 11 0 12 0;
#X connect 14 0 21 0;
#X connect 15 0 22 0;
#X connect 16 0 14 0;
#X connect 16 1 15 0;
#X connect 17 0 6 0;
#X connect 18 0 9 0;
#X connect 19 0 20 0;
#X connect 20 0 3 0;
#X connect 21 0 6 1;
#X connect 21 0 9 1;
#X connect 22 0 6 1;
#X connect 22 0 9 1;
