#N canvas 285 152 335 282 10;
#X obj -264 141 inlet~;
#X obj -215 140 inlet~;
#X obj -170 141 inlet~;
#X obj -125 140 inlet~;
#X obj 5 -21 inlet;
#X obj -249 214 outlet~;
#X obj -199 214 outlet~;
#X obj -264 164 *~;
#X obj -215 163 *~;
#X obj -170 163 *~;
#X obj -125 163 *~;
#X obj -115 104 cos~;
#X obj -75 112 cos~;
#X obj -75 89 -~ 0.25;
#X obj -115 62 line~;
#X msg -115 39 \$1 500;
#X obj -115 16 * 0.25;
#X connect 0 0 7 0;
#X connect 1 0 8 0;
#X connect 2 0 9 0;
#X connect 3 0 10 0;
#X connect 4 0 16 0;
#X connect 7 0 5 0;
#X connect 8 0 6 0;
#X connect 9 0 5 0;
#X connect 10 0 6 0;
#X connect 11 0 7 1;
#X connect 11 0 8 1;
#X connect 12 0 9 1;
#X connect 12 0 10 1;
#X connect 13 0 12 0;
#X connect 14 0 11 0;
#X connect 14 0 13 0;
#X connect 15 0 14 0;
#X connect 16 0 15 0;
