#N canvas 586 79 521 611 10;
#X msg 72 147 open \$2;
#X obj 211 224 route 1;
#X msg 211 268 play;
#X obj 72 251 > 70;
#X obj 72 273 sel 1;
#X obj 72 302 t b b;
#X msg 168 283 stop;
#X obj 211 202 route ready samplerate;
#X obj 286 230 route 0;
#X msg 172 144 \$1;
#X msg 72 324 1;
#X msg 286 261 0;
#X obj 72 362 list prepend;
#X obj 72 207 env~ 32768;
#X obj 72 229 spigot 0;
#X msg 122 262 0;
#X obj 72 104 t a a b;
#X msg 134 146 1;
#X obj 92 428 ggee/shell;
#X obj 72 512 \$1;
#X obj 72 534 outlet;
#X obj 208 441 r checking;
#X obj 208 485 b;
#X obj 231 331 list append;
#X obj 231 353 print STREAM_CHECK;
#X msg 205 144 \$2;
#X obj 72 25 inlet;
#X obj 208 463 route 1;
#X msg 72 50 cd include && ./get_stream_url.sh \$1;
#X obj 72 74 ggee/shell;
#X msg 92 406 cd include && ./set_operable.sh \$1 \$2;
#X obj 72 451 del 300;
#X obj 211 246 del 300;
#X obj 72 387 t b a a b;
#X obj 325 573 outlet;
#X obj 375 461 metro 1000;
#X obj 334 500 timer;
#X obj 334 522 / 1000;
#X obj 334 544 int;
#X obj 375 414 loadbang;
#X obj 72 175 rsk_readanysf_subst;
#X connect 0 0 40 0;
#X connect 1 0 32 0;
#X connect 2 0 40 0;
#X connect 3 0 4 0;
#X connect 4 0 5 0;
#X connect 5 0 10 0;
#X connect 5 1 6 0;
#X connect 5 1 15 0;
#X connect 6 0 40 0;
#X connect 7 0 1 0;
#X connect 7 1 8 0;
#X connect 8 0 11 0;
#X connect 9 0 12 1;
#X connect 10 0 12 0;
#X connect 11 0 12 0;
#X connect 12 0 33 0;
#X connect 13 0 14 0;
#X connect 14 0 3 0;
#X connect 15 0 14 1;
#X connect 16 0 0 0;
#X connect 16 1 9 0;
#X connect 16 1 25 0;
#X connect 16 2 17 0;
#X connect 17 0 14 1;
#X connect 19 0 20 0;
#X connect 21 0 27 0;
#X connect 22 0 19 0;
#X connect 23 0 24 0;
#X connect 25 0 23 1;
#X connect 26 0 28 0;
#X connect 27 0 22 0;
#X connect 28 0 29 0;
#X connect 29 0 16 0;
#X connect 30 0 18 0;
#X connect 31 0 19 0;
#X connect 32 0 2 0;
#X connect 33 0 31 0;
#X connect 33 1 30 0;
#X connect 33 2 23 0;
#X connect 33 3 36 0;
#X connect 35 0 36 1;
#X connect 36 0 37 0;
#X connect 37 0 38 0;
#X connect 38 0 34 0;
#X connect 39 0 35 0;
#X connect 40 0 13 0;
#X connect 40 2 7 0;
