#N canvas 233 78 480 366 10;
#X declare -stdlib zexy;
#X obj 44 6 inlet;
#X obj 101 91 t a b;
#X obj 128 114 time GMT;
#X obj 289 46 declare -stdlib zexy;
#X obj 128 138 pack f f f;
#X obj 196 138 * 0.001;
#X obj 128 185 +;
#X obj 101 206 -;
#X obj 101 279 * 1000;
#X text 151 270 <- convert seconds to miliseconds;
#X obj 101 306 delay;
#X obj 101 328 outlet;
#X obj 44 28 route stop;
#X msg 44 191 stop;
#X obj 128 161 rsk_time2sec;
#X obj 101 49 rsk_time2sec;
#X obj 101 70 f;
#X obj 101 248 t a a;
#X obj 178 328 outlet;
#X obj 101 227 mod 86400;
#X connect 0 0 12 0;
#X connect 1 0 7 0;
#X connect 1 1 2 0;
#X connect 2 0 4 0;
#X connect 2 1 4 1;
#X connect 2 2 4 2;
#X connect 2 3 5 0;
#X connect 4 0 14 0;
#X connect 5 0 6 1;
#X connect 6 0 7 1;
#X connect 7 0 19 0;
#X connect 8 0 10 0;
#X connect 10 0 11 0;
#X connect 12 0 13 0;
#X connect 12 1 15 0;
#X connect 13 0 10 0;
#X connect 14 0 6 0;
#X connect 15 0 16 0;
#X connect 16 0 1 0;
#X connect 17 0 8 0;
#X connect 17 1 18 0;
#X connect 19 0 17 0;
