#N canvas 392 210 640 500 10;
#X declare -stdpath extra/ggee -stdpath extra/zexy -stdlib extra/zexy
;
#X obj 506 251 textfile;
#X obj 506 222 r \$0.tf.i;
#X obj 506 292 s \$0.tf.o0;
#X obj 551 273 s \$0.tf.o1;
#X obj 435 198 hsl 128 15 0 127 0 0 empty empty empty -2 -8 0 10 -262144
-1 -1 7500 1;
#N canvas 421 220 413 326 update_daily_playlist 0;
#X obj 14 137 shell;
#X msg 14 42 symbol $user:$pass;
#X msg 14 68 . include/pdaccess && wget -O /tmp/rsk_daily_playlist
--quiet http://\$1@www.radiosolarkompass.org/pd/dailyplaylist.php &&
echo done;
#X obj 14 163 route done;
#X obj 14 185 b;
#X obj 14 208 del 100;
#X obj 41 275 s \$0.tf.i;
#X msg 41 252 read /tmp/rsk_daily_playlist \, rewind;
#X obj 14 14 inlet;
#X obj 14 231 t b b;
#X obj 14 298 outlet;
#X connect 0 0 3 0;
#X connect 1 0 2 0;
#X connect 2 0 0 0;
#X connect 3 0 4 0;
#X connect 4 0 5 0;
#X connect 5 0 9 0;
#X connect 7 0 6 0;
#X connect 8 0 1 0;
#X connect 9 0 10 0;
#X connect 9 1 7 0;
#X restore 16 81 pd update_daily_playlist;
#X obj 16 23 bng 15 250 50 0 empty empty empty 17 7 0 10 -262144 -1
-1;
#X obj 16 152 print RELOADED;
#X obj 139 17 declare -stdpath extra/ggee -stdpath extra/zexy -stdlib
extra/zexy;
#X obj 189 115 time GMT;
#X obj 189 140 pack f f f;
#X obj 189 162 rsk_time2sec;
#X obj 28 243 mod 86400;
#X obj 189 185 +;
#X obj 189 92 t b a;
#X floatatom 193 55 5 0 0 0 - - -;
#N canvas 184 171 368 410 find_next 0;
#X obj 44 128 s \$0.tf.i;
#X obj 44 149 r \$0.tf.o0;
#X obj 25 176 list append;
#X obj 25 104 t b b b;
#X obj 25 246 list split 3;
#X obj 25 223 route bang;
#X obj 25 271 rsk_time2sec;
#X obj 25 16 inlet;
#X obj 25 77 until;
#X obj 25 294 >;
#X obj 25 316 sel 1;
#X obj 82 43 r \$0.tf.o1;
#X obj 25 42 t b a;
#X obj 25 338 t b b;
#X obj 25 198 t a a;
#X obj 25 361 list append;
#X obj 25 386 outlet;
#X obj 283 190 b;
#X connect 1 0 2 1;
#X connect 2 0 14 0;
#X connect 3 0 2 0;
#X connect 3 1 0 0;
#X connect 3 2 2 1;
#X connect 4 0 6 0;
#X connect 5 1 4 0;
#X connect 6 0 9 0;
#X connect 7 0 12 0;
#X connect 8 0 3 0;
#X connect 9 0 10 0;
#X connect 10 0 13 0;
#X connect 11 0 8 1;
#X connect 12 0 8 0;
#X connect 12 1 9 1;
#X connect 13 0 15 0;
#X connect 13 1 17 0;
#X connect 14 0 5 0;
#X connect 14 1 15 1;
#X connect 15 0 16 0;
#X connect 17 0 8 1;
#X restore 168 318 pd find_next;
#X obj 168 340 print NEXT;
#X msg 250 55 50;
#X connect 0 0 2 0;
#X connect 0 1 3 0;
#X connect 1 0 0 0;
#X connect 5 0 7 0;
#X connect 6 0 5 0;
#X connect 9 0 10 0;
#X connect 9 1 10 1;
#X connect 9 2 10 2;
#X connect 10 0 11 0;
#X connect 11 0 13 0;
#X connect 13 0 16 0;
#X connect 14 0 9 0;
#X connect 14 1 13 1;
#X connect 15 0 14 0;
#X connect 16 0 17 0;
#X connect 18 0 14 0;
