#N canvas 520 43 644 526 10;
#X declare -stdpath extra/ggee;
#X obj 34 257 shell;
#X obj 420 18 declare -stdpath extra/ggee;
#X obj 34 12 inlet;
#X obj 34 120 spigot 1;
#X obj 34 142 t a b;
#X msg 102 133 0;
#X msg 146 135 1;
#X text 232 127 returns stream_id and stream_url for given location_id
;
#X obj 34 74 list;
#X msg 34 164 list \$1 $user:$pass;
#X obj 272 394 b;
#X obj 272 416 symbol;
#X obj 272 460 s error;
#X obj 34 96 t a a;
#X msg 272 438 RSK FAILED GET STREAMURL \$1;
#X obj 34 186 list append \$0;
#X msg 304 352 RSK GET STREAMURL \$1;
#X obj 304 374 s debug;
#X obj 66 279 t b;
#X obj 34 355 t a b;
#X msg 130 345 1;
#X msg 163 345 0;
#X obj 123 375 f;
#X obj 34 475 outlet;
#X obj 304 309 b;
#X obj 304 331 symbol;
#X obj 123 397 sel 0 1;
#X obj 311 275 t a a;
#X obj 34 44 t a b;
#X obj 34 299 route done failed;
#X obj 34 321 b;
#X obj 92 322 t b b;
#X msg 34 210 . include/pdaccess && wget -O - --quiet http://\$2@www.radiosolarkompass.org/pd/streams_of_location.php?id=\$1
&& echo done || echo failed;
#X connect 0 0 29 0;
#X connect 0 1 18 0;
#X connect 2 0 28 0;
#X connect 3 0 4 0;
#X connect 4 0 9 0;
#X connect 4 1 5 0;
#X connect 5 0 3 1;
#X connect 6 0 3 1;
#X connect 8 0 13 0;
#X connect 9 0 15 0;
#X connect 10 0 11 0;
#X connect 11 0 14 0;
#X connect 13 0 3 0;
#X connect 13 1 27 0;
#X connect 14 0 12 0;
#X connect 15 0 32 0;
#X connect 16 0 17 0;
#X connect 18 0 6 0;
#X connect 19 0 23 0;
#X connect 19 1 20 0;
#X connect 20 0 22 1;
#X connect 21 0 22 1;
#X connect 22 0 26 0;
#X connect 24 0 25 0;
#X connect 25 0 16 0;
#X connect 26 0 10 0;
#X connect 26 1 24 0;
#X connect 27 0 11 1;
#X connect 27 1 25 1;
#X connect 28 0 8 0;
#X connect 28 1 21 0;
#X connect 29 0 30 0;
#X connect 29 1 31 0;
#X connect 29 2 19 0;
#X connect 30 0 22 0;
#X connect 31 0 22 0;
#X connect 31 1 21 0;
#X connect 32 0 0 0;
