#N canvas 260 43 429 483 10;
#X obj 30 13 inlet;
#X obj 29 293 outlet~;
#X obj 85 295 outlet~;
#X msg 30 80 open \$1;
#X obj 30 56 list;
#X msg 276 180 play;
#X msg 90 81 stop;
#X obj 143 142 route ready;
#X obj 30 34 t a b;
#X msg 249 273 0;
#X obj 143 166 t a a;
#X obj 276 136 sel 1;
#X obj 276 158 del 10;
#X obj 172 457 outlet;
#X obj 172 290 > 30;
#X obj 172 337 spigot;
#X obj 172 313 change -1;
#X obj 172 227 env~ 16384 16384;
#X obj 30 112 readanysf~;
#X obj 249 250 t b b;
#X obj 172 359 t a a;
#X obj 204 380 sel 1;
#X obj 249 298 t a;
#X obj 281 399 del 10000;
#X msg 204 402 stop;
#X msg 281 423 0;
#X connect 0 0 8 0;
#X connect 3 0 18 0;
#X connect 4 0 3 0;
#X connect 5 0 18 0;
#X connect 6 0 18 0;
#X connect 7 0 10 0;
#X connect 8 0 4 0;
#X connect 8 1 6 0;
#X connect 8 1 19 0;
#X connect 9 0 22 0;
#X connect 10 0 22 0;
#X connect 10 1 11 0;
#X connect 11 0 12 0;
#X connect 12 0 5 0;
#X connect 14 0 16 0;
#X connect 15 0 20 0;
#X connect 16 0 15 0;
#X connect 17 0 14 0;
#X connect 18 0 1 0;
#X connect 18 0 17 0;
#X connect 18 1 2 0;
#X connect 18 1 17 0;
#X connect 18 2 7 0;
#X connect 19 0 9 0;
#X connect 19 1 23 0;
#X connect 20 0 13 0;
#X connect 20 1 21 0;
#X connect 21 0 24 0;
#X connect 22 0 15 1;
#X connect 23 0 25 0;
#X connect 24 0 23 0;
#X connect 25 0 13 0;
