#N canvas 342 173 375 243 10;
#X obj 9 17 loadbang;
#X msg 9 127 init https://pd:\$1@radiosolarkompass.org/pd/;
#X obj 9 39 t b b;
#X obj 104 44 text define \$0.password;
#X msg 104 24 read -c pdaccess;
#X obj 9 83 text get \$0.password;
#X msg 9 60 0;
#X obj 9 105 list;
#X obj 9 169 outlet;
#X connect 0 0 2 0;
#X connect 1 0 8 0;
#X connect 2 0 6 0;
#X connect 2 1 4 0;
#X connect 4 0 3 0;
#X connect 5 0 7 0;
#X connect 6 0 5 0;
#X connect 7 0 1 0;
