#N canvas 460 236 550 511 10;
#X declare -stdpath purest_json;
#X obj 14 10 declare -stdpath purest_json;
#X obj 16 170 rest;
#X obj 16 220 json-decode;
#X obj 16 240 list trim;
#X obj 16 260 route data status;
#X obj 16 299 json-decode;
#X obj 16 319 list trim;
#X obj 16 69 inlet;
#X obj 16 413 outlet;
#X msg 156 367 1;
#X obj 156 315 select OK failed;
#X msg 210 367 0;
#X obj 156 424 outlet;
#X obj 43 147 rsk_api_init;
#X obj 156 292 list;
#X obj 195 215 route bang;
#X obj 262 259 s ERROR;
#X obj 260 440 s DEBUG;
#X obj 156 391 t a a;
#X msg 16 94 GET getcurrentstream.php;
#X msg 262 237 RSK GET CURRENT STREAM CODE \$1;
#X msg 260 418 RSK GET CURRENT STREAM STATUS \$1;
#X msg 109 362 BEGIN;
#X msg 75 363 END;
#X obj 124 337 t b b;
#X connect 1 0 2 0;
#X connect 1 1 15 0;
#X connect 2 0 3 0;
#X connect 2 1 23 0;
#X connect 3 0 4 0;
#X connect 4 0 5 0;
#X connect 4 1 14 0;
#X connect 5 0 6 0;
#X connect 6 0 8 0;
#X connect 7 0 19 0;
#X connect 9 0 18 0;
#X connect 10 0 24 0;
#X connect 10 1 11 0;
#X connect 11 0 18 0;
#X connect 13 0 1 0;
#X connect 14 0 10 0;
#X connect 15 1 20 0;
#X connect 18 0 12 0;
#X connect 18 1 21 0;
#X connect 19 0 1 0;
#X connect 20 0 16 0;
#X connect 21 0 17 0;
#X connect 22 0 8 0;
#X connect 23 0 8 0;
#X connect 24 0 22 0;
#X connect 24 1 9 0;
