#N canvas 460 236 549 458 10;
#X declare -stdpath purest_json;
#X obj 14 10 declare -stdpath purest_json;
#X obj 16 170 rest;
#X obj 16 220 json-decode;
#X obj 16 240 list trim;
#X obj 16 260 route data status;
#X obj 16 69 inlet;
#X msg 156 337 1;
#X obj 156 315 select OK failed;
#X msg 210 337 0;
#X obj 156 394 outlet;
#X obj 43 147 rsk_api_init;
#X obj 156 292 list;
#X obj 195 215 route bang;
#X obj 262 259 s ERROR;
#X obj 260 410 s DEBUG;
#X obj 156 361 t a a;
#X obj 16 92 route float;
#X obj 170 162 b;
#X msg 16 118 POST status.php online=\$1;
#X msg 262 237 RSK STATUS ONLINE CODE \$1;
#X msg 260 388 RSK STATUS ONLINE STATUS \$1;
#X connect 1 0 2 0;
#X connect 1 1 12 0;
#X connect 2 0 3 0;
#X connect 3 0 4 0;
#X connect 4 1 11 0;
#X connect 5 0 16 0;
#X connect 6 0 15 0;
#X connect 7 0 6 0;
#X connect 7 1 8 0;
#X connect 8 0 15 0;
#X connect 10 0 1 0;
#X connect 11 0 7 0;
#X connect 12 1 19 0;
#X connect 15 0 9 0;
#X connect 15 1 20 0;
#X connect 16 0 18 0;
#X connect 16 1 17 0;
#X connect 17 0 8 0;
#X connect 18 0 1 0;
#X connect 19 0 13 0;
#X connect 20 0 14 0;
