#N canvas 226 112 491 377 10;
#X declare -stdpath extra/ggee;
#X obj 11 205 shell;
#X obj 170 16 declare -stdpath extra/ggee;
#X obj 38 232 route 0;
#X obj 38 332 outlet;
#X obj 110 329 outlet;
#X obj 11 12 inlet;
#X obj 11 80 spigot 1;
#X obj 11 102 t a b;
#X msg 79 93 0;
#X obj 38 255 t b b;
#X msg 123 95 1;
#X text 125 236 returns stream_id and stream_url for given location_id
;
#X obj 11 34 list;
#X msg 11 124 list \$1 $user:$pass;
#X obj 11 280 route done failed;
#X obj 163 268 b;
#X obj 163 290 symbol;
#X obj 163 334 print -n;
#X obj 11 56 t a a;
#X msg 163 312 RSK FAILED GET STREAMURL \$1;
#X msg 11 150 . include/pdaccess && wget -O - --quiet http://\$2@www.radiosolarkompass.org/pd/streams_of_location.php?id=\$1
&& echo done || echo failed;
#X connect 0 0 14 0;
#X connect 0 1 2 0;
#X connect 2 0 9 0;
#X connect 5 0 12 0;
#X connect 6 0 7 0;
#X connect 7 0 13 0;
#X connect 7 1 8 0;
#X connect 8 0 6 1;
#X connect 9 0 3 0;
#X connect 9 1 10 0;
#X connect 10 0 6 1;
#X connect 12 0 18 0;
#X connect 13 0 20 0;
#X connect 14 1 15 0;
#X connect 14 2 4 0;
#X connect 15 0 16 0;
#X connect 16 0 19 0;
#X connect 18 0 6 0;
#X connect 18 1 16 1;
#X connect 19 0 17 0;
#X connect 20 0 0 0;
