#N canvas 139 99 640 412 10;
#X declare -stdpath extra/ggee -stdpath extra/zexy -stdlib extra/zexy
;
#X obj 498 108 textfile;
#X obj 498 79 r \$0.tf.i;
#X obj 498 149 s \$0.tf.o0;
#X obj 543 130 s \$0.tf.o1;
#N canvas 160 130 423 365 update_daily_playlist 0;
#X obj 14 158 shell;
#X msg 14 36 symbol $user:$pass;
#X obj 14 206 b;
#X obj 14 229 del 100;
#X obj 41 319 s \$0.tf.i;
#X obj 14 14 inlet;
#X obj 14 252 t b b;
#X obj 14 342 outlet;
#X obj 63 228 s error;
#X msg 150 230 RSK UPDATED DAILY PLAYLIST;
#X obj 14 184 route done failed;
#X msg 63 207 RSK FAILED UPDATE DAILY PLAYLIST;
#X obj 150 253 s debug;
#X obj 172 173 s \$0.failed;
#X obj 172 150 b;
#X obj 14 58 list append \$0;
#X msg 14 83 . include/pdaccess && wget -O /tmp/rsk_daily_playlist_\$2.cache
--quiet http://\$1@www.radiosolarkompass.org/pd/dailyplaylist.php &&
echo done || echo failed;
#X obj 41 274 \$0;
#X msg 41 296 read /tmp/rsk_daily_playlist_\$1.cache \, rewind;
#X connect 0 0 10 0;
#X connect 1 0 15 0;
#X connect 2 0 3 0;
#X connect 3 0 6 0;
#X connect 5 0 1 0;
#X connect 6 0 7 0;
#X connect 6 1 9 0;
#X connect 6 1 17 0;
#X connect 9 0 12 0;
#X connect 10 0 2 0;
#X connect 10 1 11 0;
#X connect 10 1 14 0;
#X connect 11 0 8 0;
#X connect 14 0 13 0;
#X connect 15 0 16 0;
#X connect 16 0 0 0;
#X connect 17 0 18 0;
#X connect 18 0 4 0;
#X restore 295 140 pd update_daily_playlist;
#X obj 288 6 declare -stdpath extra/ggee -stdpath extra/zexy -stdlib
extra/zexy;
#X obj 30 131 time GMT;
#X obj 30 156 pack f f f;
#X obj 30 178 rsk_time2sec;
#X obj 30 239 +;
#X obj 30 108 t b a;
#N canvas 178 171 368 410 find_next 0;
#X obj 44 128 s \$0.tf.i;
#X obj 44 149 r \$0.tf.o0;
#X obj 25 176 list append;
#X obj 25 104 t b b b;
#X obj 25 246 list split 3;
#X obj 25 223 route bang;
#X obj 25 271 rsk_time2sec;
#X obj 25 16 inlet;
#X obj 25 77 until;
#X obj 25 294 >;
#X obj 25 316 sel 1;
#X obj 82 43 r \$0.tf.o1;
#X obj 25 42 t b a;
#X obj 25 338 t b b;
#X obj 25 198 t a a;
#X obj 25 361 list append;
#X obj 25 386 outlet;
#X obj 283 190 b;
#X connect 1 0 2 1;
#X connect 2 0 14 0;
#X connect 3 0 2 0;
#X connect 3 1 0 0;
#X connect 3 2 2 1;
#X connect 4 0 6 0;
#X connect 5 1 4 0;
#X connect 6 0 9 0;
#X connect 7 0 12 0;
#X connect 8 0 3 0;
#X connect 9 0 10 0;
#X connect 10 0 13 0;
#X connect 11 0 8 1;
#X connect 12 0 8 0;
#X connect 12 1 9 1;
#X connect 13 0 15 0;
#X connect 13 1 17 0;
#X connect 14 0 5 0;
#X connect 14 1 15 1;
#X connect 15 0 16 0;
#X connect 17 0 8 1;
#X restore 30 344 pd find_next;
#X obj 295 170 s \$0.reloaded;
#X obj 295 110 r \$0.update;
#X obj 435 253 r \$0.tf.o1;
#X obj 462 299 s \$0.update;
#X text 429 206 when reached the end of playlist \,;
#X text 430 221 generate a new one:;
#N canvas 138 224 447 211 cache_requests_during_updates 0;
#X obj 100 18 r \$0.update;
#X obj 218 17 r \$0.reloaded;
#X obj 32 14 inlet;
#X obj 101 177 outlet;
#X obj 32 127 spigot 1;
#X msg 127 91 0;
#X msg 245 62 1;
#X msg 100 62 -99999;
#X obj 100 41 t b b;
#X obj 32 101 f;
#X obj 218 40 t b b;
#X obj 32 151 route -99999;
#X connect 0 0 8 0;
#X connect 1 0 10 0;
#X connect 2 0 9 0;
#X connect 4 0 11 0;
#X connect 5 0 4 1;
#X connect 6 0 4 1;
#X connect 7 0 9 1;
#X connect 8 0 7 0;
#X connect 8 1 5 0;
#X connect 9 0 4 0;
#X connect 10 0 9 0;
#X connect 10 1 6 0;
#X connect 11 1 3 0;
#X restore 30 314 pd cache_requests_during_updates;
#X obj 30 284 +;
#X text 60 286 hack to ensure continuity;
#X obj 30 199 t a a;
#N canvas 59 289 133 225 detect_wrap_around 0;
#X obj 13 46 t f f b;
#X obj 28 71 f;
#X obj 13 93 -;
#X obj 13 138 sel 1;
#X obj 13 115 < -10000;
#X obj 13 21 inlet;
#X obj 13 160 outlet;
#X connect 0 0 2 0;
#X connect 0 1 1 1;
#X connect 0 2 1 0;
#X connect 1 0 2 1;
#X connect 2 0 4 0;
#X connect 3 0 6 0;
#X connect 4 0 3 0;
#X connect 5 0 0 0;
#X restore 57 222 pd detect_wrap_around;
#X msg 57 251 0;
#X msg 95 263 -86400;
#X obj 30 366 outlet;
#X obj 306 52 loadbang;
#X obj 306 74 s \$0.update;
#X obj 95 241 r \$0.tf.o1;
#X obj 30 60 inlet;
#X obj 435 275 t b b;
#X obj 435 324 s \$0.retrigger;
#X obj 115 55 r \$0.retrigger;
#X obj 30 83 f;
#X obj 245 242 r \$0.update;
#X obj 271 262 r \$0.reloaded;
#X obj 245 329 del 40000;
#X msg 271 284 stop;
#X obj 245 284 b;
#X obj 245 357 s \$0.update;
#X obj 314 286 r \$0.failed;
#X obj 314 329 del 10000;
#X text 236 212 keep reloading if it fails;
#X connect 0 0 2 0;
#X connect 0 1 3 0;
#X connect 1 0 0 0;
#X connect 4 0 12 0;
#X connect 6 0 7 0;
#X connect 6 1 7 1;
#X connect 6 2 7 2;
#X connect 7 0 8 0;
#X connect 8 0 21 0;
#X connect 9 0 19 0;
#X connect 10 0 6 0;
#X connect 10 1 9 1;
#X connect 11 0 25 0;
#X connect 13 0 4 0;
#X connect 14 0 30 0;
#X connect 18 0 11 0;
#X connect 19 0 18 0;
#X connect 21 0 9 0;
#X connect 21 1 22 0;
#X connect 22 0 23 0;
#X connect 23 0 19 1;
#X connect 24 0 19 1;
#X connect 26 0 27 0;
#X connect 28 0 24 0;
#X connect 29 0 33 0;
#X connect 30 0 31 0;
#X connect 30 1 15 0;
#X connect 32 0 33 0;
#X connect 33 0 10 0;
#X connect 34 0 38 0;
#X connect 35 0 37 0;
#X connect 36 0 39 0;
#X connect 37 0 36 0;
#X connect 37 0 41 0;
#X connect 38 0 36 0;
#X connect 40 0 41 0;
#X connect 41 0 39 0;
