#N canvas 302 57 380 370 10;
#X obj 30 13 inlet;
#X obj 29 293 outlet~;
#X obj 88 293 outlet~;
#X obj 30 112 readanysf~;
#X msg 30 80 open \$1;
#X obj 30 56 list;
#X msg 276 180 play;
#X msg 90 81 stop;
#X obj 143 142 route ready;
#X obj 30 34 t a b;
#X msg 249 91 0;
#X obj 143 166 t a a;
#X obj 276 136 sel 1;
#X obj 276 158 del 10;
#X obj 172 340 outlet;
#X obj 172 227 env~ 32768;
#X obj 172 250 > 30;
#X obj 172 297 spigot;
#X obj 249 248 t a a;
#X obj 276 271 sel 0;
#X msg 276 292 0;
#X obj 172 273 change -1;
#X connect 0 0 9 0;
#X connect 3 0 1 0;
#X connect 3 0 15 0;
#X connect 3 1 2 0;
#X connect 3 1 15 0;
#X connect 3 2 8 0;
#X connect 4 0 3 0;
#X connect 5 0 4 0;
#X connect 6 0 3 0;
#X connect 7 0 3 0;
#X connect 8 0 11 0;
#X connect 9 0 5 0;
#X connect 9 1 7 0;
#X connect 9 1 10 0;
#X connect 10 0 18 0;
#X connect 11 0 18 0;
#X connect 11 1 12 0;
#X connect 12 0 13 0;
#X connect 13 0 6 0;
#X connect 15 0 16 0;
#X connect 16 0 21 0;
#X connect 17 0 14 0;
#X connect 18 0 17 1;
#X connect 18 1 19 0;
#X connect 19 0 20 0;
#X connect 20 0 14 0;
#X connect 21 0 17 0;
