#N canvas 421 205 529 315 10;
#X declare -stdpath extra/ggee;
#X obj 11 180 shell;
#X obj 170 16 declare -stdpath extra/ggee;
#X obj 38 207 route 0;
#X obj 61 270 outlet;
#X obj 11 269 outlet;
#X obj 11 12 inlet;
#X obj 11 55 spigot 1;
#X obj 11 77 t a b;
#X obj 11 34 route float;
#X msg 79 68 0;
#X obj 38 230 t b b;
#X msg 123 70 1;
#X text 125 211 returns stream_id and stream_url for given location_id
;
#X msg 11 99 \$1 $user:$pass;
#X msg 11 125 . include/pdaccess && wget -O - --quiet http://\$2@www.radiosolarkompass.org/pd/streams_of_location.php?id=\$1
;
#X connect 0 0 4 0;
#X connect 0 1 2 0;
#X connect 2 0 10 0;
#X connect 5 0 8 0;
#X connect 6 0 7 0;
#X connect 7 0 13 0;
#X connect 7 1 9 0;
#X connect 8 0 6 0;
#X connect 9 0 6 1;
#X connect 10 0 3 0;
#X connect 10 1 11 0;
#X connect 11 0 6 1;
#X connect 13 0 14 0;
#X connect 14 0 0 0;
