#N canvas 30 30 204 205 10;
#X obj 18 142 textfile;
#X msg 45 55 add online;
#X obj 18 10 loadbang;
#X obj 18 32 t b b;
#X obj 18 85 metro 2000;
#X msg 18 109 write /tmp/rsk_online;
#X connect 1 0 0 0;
#X connect 2 0 3 0;
#X connect 3 0 4 0;
#X connect 3 1 1 0;
#X connect 4 0 5 0;
#X connect 5 0 0 0;
