#N canvas 386 210 640 412 10;
#X declare -stdpath extra/ggee -stdpath extra/zexy -stdlib extra/zexy
;
#X obj 498 108 textfile;
#X obj 498 79 r \$0.tf.i;
#X obj 498 149 s \$0.tf.o0;
#X obj 543 130 s \$0.tf.o1;
#N canvas 418 220 413 326 update_daily_playlist 0;
#X obj 14 137 shell;
#X msg 14 42 symbol $user:$pass;
#X msg 14 68 . include/pdaccess && wget -O /tmp/rsk_daily_playlist
--quiet http://\$1@www.radiosolarkompass.org/pd/dailyplaylist.php &&
echo done;
#X obj 14 163 route done;
#X obj 14 185 b;
#X obj 14 208 del 100;
#X obj 41 275 s \$0.tf.i;
#X obj 14 14 inlet;
#X obj 14 231 t b b;
#X obj 14 298 outlet;
#X msg 41 252 read /tmp/rsk_daily_playlist \, rewind;
#X obj 135 196 print -n;
#X msg 135 170 RSK UPDATED DAILY PLAYLIST;
#X connect 0 0 3 0;
#X connect 1 0 2 0;
#X connect 2 0 0 0;
#X connect 3 0 4 0;
#X connect 4 0 5 0;
#X connect 5 0 8 0;
#X connect 7 0 1 0;
#X connect 8 0 9 0;
#X connect 8 1 10 0;
#X connect 8 1 12 0;
#X connect 10 0 6 0;
#X connect 12 0 11 0;
#X restore 295 140 pd update_daily_playlist;
#X obj 288 6 declare -stdpath extra/ggee -stdpath extra/zexy -stdlib
extra/zexy;
#X obj 30 111 time GMT;
#X obj 30 136 pack f f f;
#X obj 30 158 rsk_time2sec;
#X obj 30 219 +;
#X obj 30 88 t b a;
#N canvas 178 171 368 410 find_next 0;
#X obj 44 128 s \$0.tf.i;
#X obj 44 149 r \$0.tf.o0;
#X obj 25 176 list append;
#X obj 25 104 t b b b;
#X obj 25 246 list split 3;
#X obj 25 223 route bang;
#X obj 25 271 rsk_time2sec;
#X obj 25 16 inlet;
#X obj 25 77 until;
#X obj 25 294 >;
#X obj 25 316 sel 1;
#X obj 82 43 r \$0.tf.o1;
#X obj 25 42 t b a;
#X obj 25 338 t b b;
#X obj 25 198 t a a;
#X obj 25 361 list append;
#X obj 25 386 outlet;
#X obj 283 190 b;
#X connect 1 0 2 1;
#X connect 2 0 14 0;
#X connect 3 0 2 0;
#X connect 3 1 0 0;
#X connect 3 2 2 1;
#X connect 4 0 6 0;
#X connect 5 1 4 0;
#X connect 6 0 9 0;
#X connect 7 0 12 0;
#X connect 8 0 3 0;
#X connect 9 0 10 0;
#X connect 10 0 13 0;
#X connect 11 0 8 1;
#X connect 12 0 8 0;
#X connect 12 1 9 1;
#X connect 13 0 15 0;
#X connect 13 1 17 0;
#X connect 14 0 5 0;
#X connect 14 1 15 1;
#X connect 15 0 16 0;
#X connect 17 0 8 1;
#X restore 30 324 pd find_next;
#X obj 295 170 s \$0.reloaded;
#X obj 295 111 r \$0.update;
#X obj 435 253 r \$0.tf.o1;
#X obj 435 280 s \$0.update;
#X text 429 206 when reached the end of playlist \,;
#X text 430 221 generate a new one:;
#N canvas 138 224 447 211 cache_requests_during_updates 0;
#X obj 100 18 r \$0.update;
#X obj 218 17 r \$0.reloaded;
#X obj 32 14 inlet;
#X obj 101 177 outlet;
#X obj 32 127 spigot 1;
#X msg 127 91 0;
#X msg 245 62 1;
#X msg 100 62 -99999;
#X obj 100 41 t b b;
#X obj 32 101 f;
#X obj 218 40 t b b;
#X obj 32 151 route -99999;
#X connect 0 0 8 0;
#X connect 1 0 10 0;
#X connect 2 0 9 0;
#X connect 4 0 11 0;
#X connect 5 0 4 1;
#X connect 6 0 4 1;
#X connect 7 0 9 1;
#X connect 8 0 7 0;
#X connect 8 1 5 0;
#X connect 9 0 4 0;
#X connect 10 0 9 0;
#X connect 10 1 6 0;
#X connect 11 1 3 0;
#X restore 30 294 pd cache_requests_during_updates;
#X obj 30 264 +;
#X text 60 266 hack to ensure continuity;
#X obj 30 179 t a a;
#N canvas 59 289 133 225 detect_wrap_around 0;
#X obj 13 46 t f f b;
#X obj 28 71 f;
#X obj 13 93 -;
#X obj 13 138 sel 1;
#X obj 13 115 < -10000;
#X obj 13 21 inlet;
#X obj 13 160 outlet;
#X connect 0 0 2 0;
#X connect 0 1 1 1;
#X connect 0 2 1 0;
#X connect 1 0 2 1;
#X connect 2 0 4 0;
#X connect 3 0 6 0;
#X connect 4 0 3 0;
#X connect 5 0 0 0;
#X restore 57 202 pd detect_wrap_around;
#X msg 57 231 0;
#X msg 95 243 -86400;
#X obj 30 346 outlet;
#X obj 307 52 loadbang;
#X obj 307 74 s \$0.update;
#X obj 95 221 r \$0.tf.o1;
#X obj 30 60 inlet;
#X connect 0 0 2 0;
#X connect 0 1 3 0;
#X connect 1 0 0 0;
#X connect 4 0 12 0;
#X connect 6 0 7 0;
#X connect 6 1 7 1;
#X connect 6 2 7 2;
#X connect 7 0 8 0;
#X connect 8 0 21 0;
#X connect 9 0 19 0;
#X connect 10 0 6 0;
#X connect 10 1 9 1;
#X connect 11 0 25 0;
#X connect 13 0 4 0;
#X connect 14 0 15 0;
#X connect 18 0 11 0;
#X connect 19 0 18 0;
#X connect 21 0 9 0;
#X connect 21 1 22 0;
#X connect 22 0 23 0;
#X connect 23 0 19 1;
#X connect 24 0 19 1;
#X connect 26 0 27 0;
#X connect 28 0 24 0;
#X connect 29 0 10 0;
