#N canvas 269 63 696 350 10;
#X declare -stdpath extra/zexy -stdlib extra/zexy;
#X obj 358 7 declare -stdpath extra/zexy -stdlib extra/zexy;
#N canvas 47 130 646 364 timestamp 0;
#X obj 25 95 date GMT;
#X obj 153 101 time GMT;
#X obj 153 165 makefilename %02d;
#X obj 168 142 makefilename %02d;
#X obj 183 121 makefilename %02d;
#X obj 34 143 makefilename %02d;
#X obj 43 121 makefilename %02d;
#X obj 25 54 t b b;
#X obj 25 164 makefilename %04d;
#X obj 25 191 pack s s s s s s;
#X msg 25 214 \$1-\$2-\$3 \$4:\$5:\$6;
#X obj 25 26 inlet;
#X obj 25 330 outlet;
#X obj 25 236 list;
#X obj 25 258 t a a;
#X msg 124 243 symbol \$1;
#X obj 124 292 sel bla;
#X obj 124 265 t a a;
#X obj 124 314 t b b;
#X obj 199 320 symbol;
#X obj 124 336 outlet;
#X obj 394 106 date GMT;
#X obj 403 154 makefilename %02d;
#X obj 412 132 makefilename %02d;
#X obj 394 175 makefilename %04d;
#X msg 394 225 symbol \$1-\$2-\$3;
#X obj 394 202 pack s s s;
#X obj 394 75 loadbang;
#X connect 0 0 8 0;
#X connect 0 1 5 0;
#X connect 0 2 6 0;
#X connect 1 0 2 0;
#X connect 1 1 3 0;
#X connect 1 2 4 0;
#X connect 2 0 9 3;
#X connect 3 0 9 4;
#X connect 4 0 9 5;
#X connect 5 0 9 1;
#X connect 6 0 9 2;
#X connect 7 0 0 0;
#X connect 7 1 1 0;
#X connect 8 0 9 0;
#X connect 9 0 10 0;
#X connect 10 0 13 0;
#X connect 11 0 7 0;
#X connect 13 0 14 0;
#X connect 14 0 12 0;
#X connect 14 1 15 0;
#X connect 15 0 17 0;
#X connect 16 1 18 0;
#X connect 17 0 16 0;
#X connect 17 1 19 1;
#X connect 18 0 20 0;
#X connect 18 1 19 0;
#X connect 19 0 16 1;
#X connect 21 0 24 0;
#X connect 21 1 22 0;
#X connect 21 2 23 0;
#X connect 22 0 26 1;
#X connect 23 0 26 2;
#X connect 24 0 26 0;
#X connect 25 0 16 1;
#X connect 26 0 25 0;
#X connect 27 0 21 0;
#X restore 107 149 pd timestamp;
#X obj 38 2 r debug;
#X obj 95 54 r error;
#X obj 38 170 list prepend;
#X obj 38 197 list trim;
#X obj 38 283 print -n;
#X obj 38 51 spigot;
#X obj 71 27 r DEBUG;
#X obj 526 254 textfile;
#X obj 519 50 loadbang;
#N canvas 376 352 450 300 current.file 0;
#X obj 18 32 date GMT;
#X obj 27 80 makefilename %02d;
#X obj 36 58 makefilename %02d;
#X obj 18 101 makefilename %04d;
#X obj 18 128 pack s s s;
#X obj 18 9 r \$0.get.current.file;
#X msg 18 150 symbol ../../../rsklog/rsklog_\$1-\$2-\$3.log;
#X obj 18 171 s \$0.current.file;
#X connect 0 0 3 0;
#X connect 0 1 1 0;
#X connect 0 2 2 0;
#X connect 1 0 4 1;
#X connect 2 0 4 2;
#X connect 3 0 4 0;
#X connect 4 0 6 0;
#X connect 5 0 0 0;
#X connect 6 0 7 0;
#X restore 357 30 pd current.file;
#X obj 546 97 s \$0.get.current.file;
#X obj 546 118 r \$0.current.file;
#X obj 519 73 t b b;
#X obj 519 139 symbol;
#X msg 519 161 read \$1 cr;
#X obj 526 231 r \$0.log;
#X obj 519 185 s \$0.log;
#X obj 38 219 t a a;
#X obj 102 244 list prepend add;
#X obj 102 266 list trim;
#X obj 102 288 s \$0.log;
#X obj 243 218 s \$0.get.current.file;
#X obj 243 239 r \$0.current.file;
#X obj 216 194 t b b;
#X obj 216 260 symbol;
#X msg 216 282 write \$1 cr \, clear;
#X obj 216 303 s \$0.log;
#X obj 38 83 t a b b;
#X obj 325 107 s \$0.get.current.file;
#X obj 325 128 r \$0.current.file;
#X obj 298 83 t b b;
#X obj 298 149 symbol;
#X obj 298 192 s \$0.log;
#X msg 298 171 write \$1 cr;
#N canvas 269 265 170 218 write.scheduler 0;
#X obj 17 18 inlet;
#X obj 17 54 spigot 1;
#X obj 17 76 t b b;
#X msg 106 73 0;
#X obj 17 120 t b b;
#X msg 117 108 1;
#X obj 17 142 outlet;
#X obj 17 98 del 20000;
#X connect 0 0 1 0;
#X connect 1 0 2 0;
#X connect 2 0 7 0;
#X connect 2 1 3 0;
#X connect 3 0 1 1;
#X connect 4 0 6 0;
#X connect 4 1 5 0;
#X connect 5 0 1 1;
#X connect 7 0 4 0;
#X restore 298 62 pd write.scheduler;
#X connect 1 0 4 1;
#X connect 1 1 25 0;
#X connect 2 0 7 0;
#X connect 3 0 29 0;
#X connect 4 0 5 0;
#X connect 5 0 19 0;
#X connect 7 0 29 0;
#X connect 8 0 7 1;
#X connect 10 0 14 0;
#X connect 13 0 15 1;
#X connect 14 0 15 0;
#X connect 14 1 12 0;
#X connect 15 0 16 0;
#X connect 16 0 18 0;
#X connect 17 0 9 0;
#X connect 19 0 6 0;
#X connect 19 1 20 0;
#X connect 20 0 21 0;
#X connect 21 0 22 0;
#X connect 24 0 26 1;
#X connect 25 0 26 0;
#X connect 25 1 23 0;
#X connect 26 0 27 0;
#X connect 27 0 28 0;
#X connect 29 0 4 0;
#X connect 29 1 1 0;
#X connect 29 2 36 0;
#X connect 31 0 33 1;
#X connect 32 0 33 0;
#X connect 32 1 30 0;
#X connect 33 0 35 0;
#X connect 35 0 34 0;
#X connect 36 0 32 0;
