#N canvas 511 421 166 177 10;
#X obj 14 12 inlet;
#X obj 14 34 unpack f f f;
#X obj 14 65 * 3600;
#X obj 59 65 * 60;
#X obj 14 89 +;
#X obj 14 111 +;
#X obj 14 135 outlet;
#X connect 0 0 1 0;
#X connect 1 0 2 0;
#X connect 1 1 3 0;
#X connect 1 2 5 1;
#X connect 2 0 4 0;
#X connect 3 0 4 1;
#X connect 4 0 5 0;
#X connect 5 0 6 0;
