#N canvas 268 107 445 330 10;
#X declare -path wav;
#N canvas 545 71 419 353 storage 0;
#X obj 15 10 table \$0.t0;
#X obj 15 31 table \$0.t1;
#X obj 15 51 table \$0.t2;
#X obj 15 72 table \$0.t3;
#X obj 15 93 table \$0.t4;
#X obj 15 114 table \$0.t5;
#X obj 15 135 table \$0.t6;
#X obj 15 156 table \$0.t7;
#X obj 15 176 table \$0.t8;
#X obj 15 197 table \$0.t9;
#X obj 16 227 table \$0.tn;
#X obj 16 246 table \$0.te;
#X obj 16 266 table \$0.ts;
#X obj 16 286 table \$0.tw;
#X obj 16 306 table \$0.tp;
#X obj 126 118 list split 1;
#X obj 126 75 until;
#X obj 126 96 list append;
#X obj 221 90 bang;
#X obj 126 53 t b a;
#X msg 126 17 0 1 2 3 4 5 6 7 8 9 n e s w p;
#X obj 126 189 soundfiler;
#X obj 126 142 list append \$0;
#X msg 126 165 read -resize \$1.wav \$2.t\$1;
#X connect 15 0 22 0;
#X connect 15 1 17 1;
#X connect 15 2 18 0;
#X connect 16 0 17 0;
#X connect 17 0 15 0;
#X connect 18 0 16 1;
#X connect 19 0 16 0;
#X connect 19 1 17 1;
#X connect 20 0 19 0;
#X connect 22 0 23 0;
#X connect 23 0 21 0;
#X restore 293 45 pd storage;
#X obj 292 16 declare -path wav;
#N canvas 641 169 146 192 play_digit 0;
#X obj 10 87 tabplay~;
#X obj 10 44 list append \$0;
#X msg 10 66 set \$2.t\$1 \, bang;
#X obj 10 18 inlet;
#X obj 11 135 s~ \$0.out;
#X obj 55 110 outlet;
#X connect 0 0 4 0;
#X connect 0 1 5 0;
#X connect 1 0 2 0;
#X connect 2 0 0 0;
#X connect 3 0 1 0;
#X restore 92 196 pd play_digit;
#X obj 287 214 r~ \$0.out;
#X obj 287 246 dac~;
#X msg 92 37 4 7 p 1 8 6 2 n 8 p 0 4 7 3 e;
#X obj 92 171 list split 1;
#X obj 92 149 list append;
#X obj 161 237 bang;
#X obj 92 65 t b a;
#X obj 40 156 b;
#X obj 161 262 print DONE;
#X connect 2 0 10 0;
#X connect 3 0 4 0;
#X connect 3 0 4 1;
#X connect 5 0 9 0;
#X connect 6 0 2 0;
#X connect 6 1 7 1;
#X connect 6 2 8 0;
#X connect 7 0 6 0;
#X connect 8 0 11 0;
#X connect 9 0 7 0;
#X connect 9 1 7 1;
#X connect 10 0 7 0;
