#N canvas 563 1613 525 378 10;
#X obj 123 161 readanysf~;
#X obj 23 20 loadbang;
#X msg 23 42 \; pd dsp 1;
#X msg 123 133 open \$1;
#X obj 123 185 env~ 16284;
#X obj 341 119 route ready;
#X obj 341 141 sel 1;
#X obj 341 163 del 100;
#X msg 341 187 play;
#X obj 123 86 delay 300;
#X obj 123 108 list append;
#X obj 181 327 print -n;
#X obj 123 207 > 0;
#X obj 123 229 sel 1;
#X msg 123 313 \; pd quit;
#X obj 123 17 r streamurl;
#X obj 123 51 t b a;
#X obj 186 82 list;
#X msg 218 18 http://www.netpd.org:8010/netpd.mp3;
#X msg 123 252 symbol true;
#X obj 123 278 t b a;
#X msg 234 256 symbol false;
#X obj 234 212 loadbang;
#X obj 234 234 delay 10000;
#X msg 181 305 export readyforradiosolarkompass=\$1;
#X connect 0 0 4 0;
#X connect 0 2 5 0;
#X connect 1 0 2 0;
#X connect 3 0 0 0;
#X connect 4 0 12 0;
#X connect 5 0 6 0;
#X connect 6 0 7 0;
#X connect 7 0 8 0;
#X connect 8 0 0 0;
#X connect 9 0 10 0;
#X connect 10 0 3 0;
#X connect 12 0 13 0;
#X connect 13 0 19 0;
#X connect 15 0 16 0;
#X connect 16 0 9 0;
#X connect 16 1 17 0;
#X connect 17 0 10 1;
#X connect 18 0 16 0;
#X connect 19 0 20 0;
#X connect 20 0 14 0;
#X connect 20 1 24 0;
#X connect 21 0 20 0;
#X connect 22 0 23 0;
#X connect 23 0 21 0;
#X connect 24 0 11 0;
