#N canvas 621 102 379 390 10;
#X obj 28 28 r URL;
#X obj 28 48 list;
#X msg 28 68 open \$1;
#X obj 28 99 readanysf~;
#X obj 216 23 loadbang;
#X msg 216 67 10000;
#X obj 216 87 del;
#X msg 193 293 quit;
#X obj 193 319 s pd;
#X obj 216 107 t b b;
#X obj 28 139 env~ 4096 4096;
#X obj 28 159 > 70;
#X obj 27 179 sel 1;
#X msg 77 267 1;
#X obj 77 344 print -n;
#X msg 109 268 0;
#X obj 27 199 t b b;
#X obj 127 109 route ready;
#X obj 127 134 sel 1;
#X obj 127 154 del 100;
#X msg 90 70 play;
#X obj 216 43 t b b;
#X msg 282 75 dsp 1;
#X obj 282 98 s pd;
#X msg 77 311 OPERABLE \$1;
#X connect 0 0 1 0;
#X connect 1 0 2 0;
#X connect 2 0 3 0;
#X connect 3 0 10 0;
#X connect 3 2 17 0;
#X connect 4 0 21 0;
#X connect 5 0 6 0;
#X connect 6 0 9 0;
#X connect 7 0 8 0;
#X connect 9 0 7 0;
#X connect 9 1 15 0;
#X connect 10 0 11 0;
#X connect 11 0 12 0;
#X connect 12 0 16 0;
#X connect 13 0 24 0;
#X connect 15 0 24 0;
#X connect 16 0 7 0;
#X connect 16 1 13 0;
#X connect 17 0 18 0;
#X connect 18 0 19 0;
#X connect 19 0 20 0;
#X connect 20 0 3 0;
#X connect 21 0 5 0;
#X connect 21 1 22 0;
#X connect 22 0 23 0;
#X connect 24 0 14 0;
